<svg width="40" height="40" viewBox="0 0 40 40" fill="none" xmlns="http://www.w3.org/2000/svg">
<path d="M19.5833 32.4998C29.4784 32.4998 37.5 26.7168 37.5 19.5832C37.5 12.4495 29.4784 6.6665 19.5833 6.6665C9.68819 6.6665 1.66663 12.4495 1.66663 19.5832C1.66663 26.7168 9.68819 32.4998 19.5833 32.4998Z" fill="#0494DA" fill-opacity="0.56"/>
<path d="M18.7259 20.7881C17.0776 16.174 14.6559 11.7206 13.6551 9.95897C13.3617 9.44313 12.9992 8.97063 12.5801 8.55063L10.4526 6.42314C10.1267 6.0973 9.27422 6.42314 9.27422 6.42314L7.91422 7.27814L7.77922 9.21064L7.31089 9.16647C6.87922 9.16647 6.52922 9.51647 6.52922 9.94813C6.52922 10.3815 6.87339 10.7556 7.30672 10.749C8.89672 10.724 10.2792 12.0831 10.2792 12.0831H11.9459C12.2126 12.3498 12.8951 13.2215 13.0526 14.1156C13.1417 14.6248 13.1809 15.1398 13.1517 15.6556C12.8817 20.5181 14.0292 21.6665 14.0292 21.6665C9.44589 18.7498 1.68005 19.1965 1.68005 19.1965L1.84089 21.7098L4.16672 25.8331C4.93255 26.0098 4.78672 25.3115 5.63755 25.4131C10.8034 26.0306 16.9459 25.4165 16.9459 25.4165C18.1959 25.4165 18.5776 24.7556 19.1667 24.1665C20.0001 23.3331 19.0409 21.6698 18.7259 20.7881Z" fill="#FFE999"/>
<path d="M20.7608 20.7881C22.4091 16.174 24.8308 11.7206 25.8316 9.95897C26.125 9.44313 26.4875 8.97063 26.9066 8.55063L29.0341 6.42314C29.36 6.0973 30.2125 6.42314 30.2125 6.42314L31.5116 7.4998L31.7075 9.21064L32.1758 9.16647C32.6075 9.16647 32.9575 9.51647 32.9575 9.94813C32.9575 10.3815 32.6133 10.7556 32.18 10.749C30.59 10.724 29.2075 12.0831 29.2075 12.0831H27.5408C27.2741 12.3498 26.5916 13.2215 26.4341 14.1156C26.345 14.6248 26.3058 15.1398 26.335 15.6556C26.605 20.5181 25.4575 21.6665 25.4575 21.6665C30.0408 18.7498 37.9575 19.1665 37.9575 19.1665L37.82 21.6665L35.32 25.8331C34.5541 26.0098 34.7 25.3115 33.8491 25.4131C28.6833 26.0306 22.5408 25.4165 22.5408 25.4165C21.2908 25.4165 20.9091 24.7556 20.32 24.1665C19.4866 23.3331 20.4458 21.6698 20.7608 20.7881Z" fill="#FFE999"/>
<path d="M36.5266 13.6048C36.2674 13.259 35.9899 12.9315 35.6999 12.6156C35.6508 12.5623 35.5974 12.5131 35.5474 12.4606C35.2899 12.189 35.0241 11.9281 34.7474 11.679C34.7258 11.6598 34.7033 11.6415 34.6816 11.6223C34.1924 11.1873 33.6808 10.779 33.1441 10.4106C33.2033 10.2648 33.2358 10.1073 33.2358 9.94813C33.2358 9.28813 32.6999 8.75063 32.0016 8.75063H31.9983L31.9858 8.7523V7.76646C31.9858 7.32146 31.7458 6.90646 31.3608 6.68396L30.2241 6.03313C30.0399 5.9623 29.0941 5.6348 28.6024 6.1273L27.0716 7.65896C26.7541 7.57063 26.3299 7.45063 26.0624 7.3873C24.0774 6.90646 22.0383 6.67813 19.9999 6.66646C17.4741 6.66313 14.9208 6.99146 12.4849 7.72896L10.8841 6.12813C10.3924 5.63646 9.4466 5.9623 9.20244 6.0623L8.12494 6.68396C7.73994 6.90646 7.49994 7.32146 7.49994 7.76646V8.7548L7.44827 8.7498C6.78744 8.7498 6.24994 9.28813 6.24994 9.94813C6.24994 10.2073 6.33577 10.4598 6.48577 10.669C5.67077 11.2648 4.89994 11.929 4.21744 12.6873C3.95494 12.979 3.70411 13.2831 3.46744 13.6006C2.19827 15.2881 1.71744 17.3915 1.66661 19.5831C1.63744 21.7731 2.04577 23.9356 3.27661 25.7023C4.50827 27.479 6.15244 28.914 7.96327 30.0048C11.6116 32.179 15.8266 33.129 19.9999 33.2098C22.0924 33.1881 24.1858 32.944 26.2258 32.4398C28.2608 31.9198 30.2341 31.1215 32.0474 30.0231C33.8499 28.9165 35.4999 27.489 36.7283 25.7065C37.9583 23.9381 38.3383 21.774 38.3066 19.584C38.2541 17.3915 37.7974 15.2898 36.5266 13.6048ZM33.9941 12.6156C34.1849 12.8031 34.3674 12.9981 34.5458 13.1965C34.6258 13.2856 34.7083 13.3723 34.7858 13.4631C35.0299 13.7523 35.2633 14.049 35.4758 14.3598C36.3824 15.6756 36.9633 17.1848 37.1066 18.7281C35.2116 18.7023 30.0699 18.8231 26.2383 20.6798C26.5174 19.7356 26.7541 18.1665 26.6124 15.6315C26.5874 15.1715 26.6191 14.6856 26.7066 14.1873C26.8224 13.529 27.2916 12.839 27.5849 12.499H28.1908C28.7999 12.499 29.3841 12.3123 29.8783 11.9598C30.3983 11.5898 31.1774 11.1423 32.0349 11.1648C32.0949 11.1648 32.1508 11.1398 32.2099 11.1315C32.4324 11.2915 32.6566 11.4506 32.8699 11.6206C32.9333 11.6715 32.9949 11.724 33.0574 11.7756C33.2849 11.9623 33.5058 12.1565 33.7199 12.3556C33.8133 12.4415 33.9049 12.5281 33.9941 12.6156ZM19.9999 7.4998C21.9741 7.52146 23.9449 7.7523 25.8558 8.2248C26.0291 8.26896 26.1991 8.32313 26.3699 8.37563C25.9683 8.7948 25.6149 9.25396 25.3316 9.7523C24.3524 11.4756 21.8949 15.9881 20.2308 20.6481C20.1683 20.8215 20.0949 21.0065 20.0183 21.1981C19.9249 21.4323 19.8299 21.6748 19.7424 21.9215C19.6558 21.6748 19.5599 21.4315 19.4666 21.1981C19.3899 21.0065 19.3166 20.8215 19.2541 20.6481C17.5874 15.9823 15.1316 11.474 14.1533 9.7523C13.9058 9.31646 13.5974 8.91563 13.2583 8.53896C15.4349 7.88396 17.7199 7.5448 19.9999 7.4998ZM4.52911 14.3648C4.73827 14.0615 4.96577 13.7706 5.20494 13.4881C5.28327 13.3948 5.36827 13.3065 5.44994 13.2156C5.61827 13.0281 5.78994 12.8423 5.97077 12.664C6.06661 12.569 6.16494 12.4773 6.26327 12.3848C6.4541 12.2073 6.64911 12.034 6.84994 11.8665C6.93244 11.7973 7.01494 11.7281 7.0991 11.6606C7.3016 11.4998 7.51161 11.3473 7.72244 11.1956C8.46077 11.2698 9.14494 11.6306 9.60744 11.9606C10.1024 12.3131 10.6858 12.4998 11.2958 12.4998H11.9016C12.1949 12.839 12.6641 13.529 12.7799 14.1881C12.8674 14.6856 12.8991 15.1715 12.8741 15.6323C12.7324 18.1673 12.9691 19.7381 13.2483 20.6815C9.7541 18.9906 5.13661 18.7373 2.89411 18.7281C3.03994 17.1856 3.62161 15.6781 4.52911 14.3648ZM5.19661 25.2256C5.03661 25.039 4.86661 24.8615 4.71994 24.6648C3.60744 23.1881 2.90827 21.4206 2.85494 19.5831C2.85494 19.5765 2.85577 19.569 2.85577 19.5623C5.25411 19.5673 10.5441 19.8548 13.9433 22.0181C14.1191 22.1298 14.3466 22.0915 14.4816 21.9315C14.6166 21.7731 14.6091 21.534 14.4699 21.3798C14.4599 21.3681 13.4549 20.1948 13.7066 15.6781C13.7358 15.1531 13.7008 14.6031 13.6016 14.0431C13.4199 13.014 12.6574 12.0665 12.3791 11.7881C12.2999 11.7106 12.1933 11.6665 12.0833 11.6665H11.2958C10.8608 11.6665 10.4449 11.534 10.0916 11.2815C9.47077 10.839 8.48744 10.3256 7.43744 10.3315C7.32827 10.3348 7.2491 10.279 7.20327 10.234C7.12661 10.1598 7.08327 10.0556 7.08327 9.94813C7.08327 9.74646 7.2466 9.58313 7.4091 9.58146L7.87744 9.62646C7.96994 9.6323 8.05744 9.60396 8.1341 9.55646L8.45577 9.87813C8.53494 9.9573 8.6416 9.9998 8.74994 9.9998C8.7941 9.9998 8.83827 9.9923 8.8816 9.97896L9.88744 9.64396L10.9549 10.7115C11.0366 10.7923 11.1433 10.8331 11.2499 10.8331C11.3566 10.8331 11.4633 10.7923 11.5449 10.7115C11.7074 10.549 11.7074 10.2848 11.5449 10.1223L10.5891 9.16646L10.7108 9.0448C10.7924 8.96313 10.8333 8.85646 10.8333 8.7498C10.8333 8.64313 10.7924 8.53646 10.7116 8.4548L9.87827 7.62146C9.71577 7.45896 9.4516 7.45896 9.2891 7.62146C9.20744 7.70313 9.1666 7.8098 9.1666 7.91646C9.1666 8.02313 9.20744 8.1298 9.28827 8.21146L9.8266 8.7498L9.7741 8.8023L8.8616 9.10646L8.33327 8.5773V7.76646C8.33327 7.61813 8.41327 7.4798 8.5416 7.4048L9.55827 6.81146C9.86244 6.69563 10.2183 6.6623 10.2941 6.71646L12.4224 8.8448C12.8183 9.24063 13.1574 9.68396 13.4299 10.164C14.3974 11.8665 16.8266 16.3248 18.4708 20.9281C18.5358 21.1106 18.6133 21.3048 18.6933 21.5065C18.9824 22.2323 19.3108 23.0548 19.1766 23.659C19.0066 24.424 18.1066 24.9998 17.0749 24.9998C17.0166 25.0015 11.1391 25.1156 5.88744 25.009C5.66494 25.0015 5.42411 25.0948 5.19661 25.2256ZM31.0141 28.2648C29.3641 29.1973 27.5508 29.8465 25.6933 30.2806C23.8366 30.7298 21.9199 30.9456 19.9999 30.9573C16.1733 30.9656 12.2841 30.1648 8.97494 28.284C7.80744 27.6181 6.71744 26.814 5.78161 25.8748C5.81161 25.8631 5.85077 25.8431 5.87077 25.8423C11.1391 25.9481 17.0324 25.834 17.0833 25.8331C18.2466 25.8331 19.2633 25.2723 19.7433 24.4415C20.2224 25.2723 21.2383 25.8331 22.3949 25.8331C22.4541 25.8348 28.3499 25.949 33.6133 25.8423C33.6874 25.8448 33.8399 25.9273 34.0158 26.0498C33.1233 26.9073 32.1091 27.654 31.0141 28.2648ZM35.2741 24.6606C35.0683 24.9348 34.8358 25.1898 34.6049 25.4448C34.2966 25.2173 33.9299 25.0081 33.6116 25.0081C33.6074 25.0081 33.6024 25.0081 33.5974 25.0081C28.3474 25.1123 22.4691 24.9998 22.4024 24.999C21.3791 24.999 20.4791 24.4231 20.3091 23.659C20.1749 23.0548 20.5024 22.2323 20.7924 21.5065C20.8724 21.3048 20.9499 21.1098 21.0149 20.9281C22.6574 16.3298 25.0874 11.869 26.0558 10.164C26.3283 9.68396 26.6674 9.24063 27.0633 8.8448L29.1883 6.71896C29.2683 6.66646 29.6233 6.6973 29.8674 6.78313L30.9449 7.40563C31.0733 7.48063 31.1533 7.61896 31.1533 7.7673V8.57813L30.6241 9.1073L29.7116 8.80313L29.6591 8.7498L30.1974 8.21146C30.2791 8.1298 30.3191 8.02313 30.3191 7.91646C30.3191 7.8098 30.2783 7.70313 30.1974 7.62146C30.0349 7.45896 29.7708 7.45896 29.6083 7.62146L28.7749 8.4548C28.6933 8.53646 28.6533 8.64313 28.6533 8.7498C28.6533 8.85646 28.6941 8.96313 28.7749 9.0448L28.8974 9.16646L27.9424 10.1215C27.7799 10.284 27.7799 10.5481 27.9424 10.7106C28.0233 10.7923 28.1299 10.8331 28.2366 10.8331C28.3433 10.8331 28.4499 10.7923 28.5316 10.7115L29.5991 9.64396L30.6049 9.97896C30.6474 9.9923 30.6924 9.9998 30.7366 9.9998C30.8449 9.9998 30.9516 9.9573 31.0316 9.87813L31.3533 9.55646C31.4299 9.60396 31.5174 9.63313 31.6099 9.62646L32.0391 9.58313C32.2408 9.58313 32.4041 9.74646 32.4041 9.94813C32.4041 10.0556 32.3608 10.1598 32.2849 10.234C32.2383 10.2798 32.1541 10.3248 32.0499 10.3315C30.9841 10.3406 30.0174 10.8381 29.3958 11.2815C29.0424 11.534 28.6266 11.6665 28.1916 11.6665H27.4033C27.2924 11.6665 27.1866 11.7106 27.1083 11.7881C26.8299 12.0665 26.0666 13.0156 25.8858 14.0431C25.7874 14.6048 25.7516 15.1548 25.7808 15.679C26.0324 20.1948 25.0274 21.3681 25.0249 21.3715C24.8749 21.5223 24.8616 21.7615 24.9941 21.9265C25.1266 22.0923 25.3624 22.1315 25.5433 22.0173C29.2166 19.6798 35.1899 19.5431 37.1449 19.5656C37.1449 19.5715 37.1458 19.5765 37.1458 19.5823C37.0891 21.4206 36.3883 23.1865 35.2741 24.6606Z" fill="#141414"/>
</svg>
