<svg width="50" height="50" viewBox="0 0 50 50" fill="none" xmlns="http://www.w3.org/2000/svg">
<path d="M22.0005 5.405C14.9747 7.76959 9.22108 9.71361 9.21381 9.71828C9.20291 9.7323 10.5732 16.7186 10.6459 17.0411C10.6568 17.0925 10.7149 17.1298 10.7985 17.1485C11.4855 17.2794 12.2124 17.6158 12.6595 18.0084L12.8739 18.1953L12.9684 17.6486C13.2047 16.3074 13.2774 15.9896 13.3719 15.812C13.4882 15.5971 13.6554 15.4242 13.8444 15.3307C13.9243 15.2933 14.942 14.9428 16.1124 14.5503C18.4568 13.7699 18.4313 13.7745 18.7948 14.0129C19.0056 14.1484 18.9983 14.139 20.3795 16.298C20.921 17.1392 21.3645 17.8168 21.3717 17.8121C21.3754 17.8028 21.4081 17.6205 21.4408 17.4009C21.7498 15.3073 22.9165 13.2371 24.4467 12.0689C25.4462 11.3025 26.4675 10.7744 27.7106 10.3772C29.0881 9.93792 30.2367 9.84446 31.4216 10.0734C32.5338 10.2837 33.5479 10.8772 34.3039 11.7604L34.5183 12.0175L34.6383 11.6436C34.9327 10.7137 35.5942 9.59211 36.3066 8.79768L36.4592 8.62945L35.6669 4.87694C35.1253 2.2927 34.86 1.11508 34.8273 1.1104C34.7982 1.10573 29.0263 3.0404 22.0005 5.405Z" fill="#42002B" fill-opacity="0.9"/>
<path d="M42.7213 6.98822C41.2348 7.15645 39.4575 7.85742 38.3198 8.72195C37.5166 9.32945 36.7279 10.2033 36.2699 10.9884C35.5648 12.1987 35.2704 13.7269 35.463 15.2082C35.5139 15.5821 35.8119 16.7644 35.9428 17.0915C36.1536 17.6196 36.6443 18.3392 37.1022 18.7832C37.3603 19.0402 38.1526 19.5496 38.5379 19.7131C39.5047 20.1243 40.7441 20.1804 42.0817 19.8767C43.7499 19.4981 45.2438 18.7037 46.356 17.6102C47.6717 16.3111 48.3586 14.7876 48.4786 12.895C48.5694 11.4884 48.0497 9.81078 47.1992 8.75466C46.0979 7.39011 44.5496 6.77793 42.7213 6.98822ZM42.8086 10.2127C43.4992 10.4837 44.1134 11.437 44.3606 12.6147C44.466 13.11 44.4732 14.1428 44.3787 14.6007C44.1352 15.7643 43.5609 16.4326 42.4815 16.8064C42.0635 16.9513 41.3402 16.9513 41.0276 16.8018C40.4315 16.5214 39.9227 15.8204 39.7337 15.0073C39.2794 13.0539 39.4575 11.6567 40.2643 10.8763C40.5551 10.5959 40.8313 10.4183 41.2166 10.2781C41.8163 10.0538 42.3543 10.0304 42.8086 10.2127Z" fill="#05011F" fill-opacity="0.9"/>
<path d="M29.3349 11.3534C28.4081 11.5169 27.3213 11.8908 26.4272 12.3534C24.6026 13.2927 23.2978 14.8769 22.7708 16.7976C22.5854 17.4798 22.5309 17.9098 22.5309 18.7135C22.5345 19.3211 22.5491 19.536 22.6327 20.0454C23.0434 22.5362 24.5336 24.1017 26.8052 24.4194C28.0701 24.6017 29.9456 24.139 31.2104 23.3446C31.8538 22.938 32.1772 22.6436 32.6643 22.0174C32.9005 21.7137 33.0968 21.4707 33.1041 21.48C33.1077 21.4894 33.1913 21.7184 33.2858 21.9987C33.4203 22.3773 33.4748 22.4941 33.5184 22.4801C33.5511 22.4661 34.0018 22.3165 34.5216 22.1483C35.612 21.7885 35.9609 21.667 35.9827 21.6389C36.0045 21.6109 34.8996 15.3816 34.8632 15.3302C34.8414 15.2975 32.3989 16.0873 29.6112 17.0266L29.3895 17.1013L29.6148 18.3023C29.7384 18.9659 29.8474 19.522 29.862 19.536C29.8765 19.5594 31.1086 19.1715 31.5375 19.008C31.5957 18.9893 31.5993 19.0033 31.5775 19.1435C31.5085 19.536 31.3086 19.8958 30.9451 20.265C30.4471 20.7744 29.8511 21.0828 29.1423 21.1903C27.9647 21.3726 27.1323 20.7136 26.7834 19.3257C26.6017 18.6014 26.529 18.0733 26.529 17.4284C26.5254 16.4938 26.6744 15.9658 27.1033 15.4143C27.5612 14.8255 28.2482 14.4797 29.0551 14.4283C29.7129 14.3862 30.1164 14.5638 30.4944 15.0498C30.6034 15.19 30.7088 15.3022 30.727 15.3022C30.7634 15.3022 34.4416 14.0825 34.4598 14.0638C34.4816 14.0404 34.358 13.7554 34.2017 13.4563C34.0127 13.0965 33.602 12.5684 33.3221 12.3254C32.8533 11.9188 32.2499 11.6011 31.6684 11.4515C30.996 11.2786 30.0001 11.2366 29.3349 11.3534Z" fill="#05011F" fill-opacity="0.9"/>
<path d="M16.3849 15.891C15.2872 16.2648 14.3785 16.5873 14.3676 16.6106C14.3567 16.634 14.1205 17.9705 13.8406 19.5827L13.3318 22.5174L13.3099 21.938C13.2845 21.237 13.2154 20.8865 13.001 20.3071C12.8665 19.9566 12.7829 19.8024 12.5576 19.5126C12.2414 19.1014 11.9906 18.9051 11.558 18.7135C11.071 18.5032 10.7875 18.4565 9.95153 18.4565C8.73756 18.4565 8.72666 18.4612 4.48866 19.8678L1.42102 20.8865L1.44283 21.0361C1.4501 21.1202 1.9226 23.7138 2.48597 26.798C3.1293 30.3075 3.52911 32.4058 3.55456 32.4058C3.61998 32.4058 7.4618 31.1113 7.48724 31.0833C7.49815 31.0693 7.3673 30.2935 7.19647 29.3589C7.02564 28.4243 6.88026 27.6205 6.87299 27.5738C6.86208 27.4943 6.99293 27.4429 8.09423 27.0737C8.77027 26.8448 9.59534 26.5457 9.92246 26.4008C11.569 25.6952 12.6412 24.7091 13.0991 23.4754C13.1573 23.3119 13.2009 23.2278 13.19 23.2932C13.1827 23.3586 12.9319 24.7839 12.6412 26.4616C12.3468 28.1439 12.1178 29.5271 12.1287 29.5411C12.1432 29.5598 13.568 29.0972 15.8615 28.3308L15.9887 28.2841L16.0723 27.4616C16.1159 27.0083 16.1631 26.6204 16.1777 26.6064C16.1922 26.5877 16.6211 26.4382 17.13 26.2653C17.6388 26.0971 18.5293 25.798 19.1036 25.6064C19.6815 25.4148 20.1649 25.2652 20.1794 25.2793C20.1976 25.2886 20.3757 25.5924 20.5792 25.9569C20.7828 26.3167 20.9572 26.6111 20.9645 26.6111C20.9718 26.6111 21.8623 26.3167 22.9454 25.9569C24.0249 25.597 24.919 25.3026 24.9263 25.3026C24.9335 25.3026 23.4833 23.0315 21.7023 20.2557C19.9214 17.4798 18.4457 15.2087 18.4239 15.2134C18.4021 15.2134 17.4862 15.5218 16.3849 15.891ZM18.0968 21.3258C18.6202 22.2931 19.0418 23.0876 19.0381 23.0969C19.02 23.125 16.5339 23.9427 16.5193 23.9241C16.5048 23.9054 16.8901 20.4379 16.9918 19.6482C17.0318 19.3538 17.0318 19.3491 17.0863 19.4566C17.1191 19.5173 17.5734 20.3585 18.0968 21.3258ZM8.98472 21.7464C9.27912 21.9473 9.42814 22.2464 9.43541 22.6623C9.44268 22.9707 9.33001 23.2605 9.09012 23.5689C8.78845 23.9568 8.46133 24.1343 7.33822 24.5129C6.80393 24.6904 6.35687 24.8353 6.3496 24.826C6.33143 24.7979 5.93525 22.4053 5.93525 22.3118C5.93525 22.2464 6.05883 22.1903 6.58222 22.0081C7.59628 21.6576 7.81436 21.6109 8.35229 21.6249C8.76664 21.6342 8.8466 21.6483 8.98472 21.7464Z" fill="#05011F" fill-opacity="0.9"/>
<path d="M44.2263 21.4053C41.6493 22.2651 39.5231 22.9614 39.5013 22.9521C39.4831 22.9381 39.3922 22.5829 39.305 22.153C39.2178 21.7277 39.1269 21.3586 39.1051 21.3399C39.0833 21.3165 38.9524 21.2744 38.8107 21.2417C38.2509 21.1062 37.2841 20.6296 36.8043 20.2464C36.7389 20.195 36.6844 20.1669 36.6844 20.1856C36.6844 20.2043 36.7353 20.5081 36.7971 20.8585C36.9243 21.5595 36.9279 21.9754 36.8153 22.2511C36.7171 22.4988 36.539 22.7325 36.3609 22.8446C36.2701 22.9054 35.5722 23.1577 34.8126 23.4101C33.3005 23.9054 33.1915 23.9241 32.8753 23.7185L32.7263 23.6204L32.4609 23.868C31.5123 24.7372 30.1021 25.4008 28.5428 25.7092C27.8413 25.8448 26.3329 25.812 25.8859 25.6485C25.8459 25.6345 25.8023 25.6999 25.7441 25.8681C25.6533 26.1111 25.4643 26.3681 25.2825 26.485C25.228 26.5224 24.7955 26.6812 24.3266 26.8401C23.8577 26.9943 22.9345 27.3074 22.273 27.5317C20.8446 28.0131 20.6593 28.0364 20.3285 27.7981C20.1758 27.6906 20.0704 27.5551 19.8851 27.2373C19.747 27.0084 19.6161 26.8168 19.5943 26.8074C19.5689 26.8027 18.9655 26.9943 18.2568 27.2327L16.9665 27.6673L16.9228 28.1346C16.872 28.6767 16.8102 28.9056 16.6539 29.1486C16.4358 29.4898 16.4721 29.4758 13.9497 30.3076C13.6298 30.4151 13.3572 30.5132 13.3427 30.5319C13.3282 30.5459 13.35 30.7328 13.3936 30.9478C13.4372 31.1721 13.4554 31.3544 13.4372 31.373C13.419 31.3917 11.3655 32.1114 8.86846 32.9713C6.3751 33.8311 4.33606 34.5414 4.33606 34.5554C4.33969 34.5928 19.0927 42.8876 19.1145 42.8642C19.1218 42.8502 19.2417 42.2941 19.3799 41.6305C19.518 40.967 19.6743 40.2333 19.7251 40.0043C19.776 39.7753 19.816 39.579 19.8087 39.5744C19.7978 39.5603 19.2454 40.0931 18.7692 40.5744C18.6093 40.7333 18.4712 40.8501 18.4639 40.8314C18.453 40.8081 18.4094 40.6211 18.3658 40.4062C18.2604 39.9062 18.2749 39.3173 18.3985 38.9902C18.5366 38.6164 18.682 38.4622 19.8887 37.3873L20.4484 36.892L21.0373 35.1489C21.3607 34.1956 21.677 33.2703 21.7387 33.0928C21.8005 32.9199 21.8405 32.7797 21.8296 32.7797C21.7642 32.7797 19.9832 34.0274 19.1872 34.6349C18.7511 34.962 18.493 35.0695 18.1114 35.0695C17.7515 35.0695 17.5553 34.8592 17.5553 34.4853C17.5553 34.2096 17.6788 33.9106 17.9551 33.5274C18.533 32.7283 19.6743 31.817 21.8732 30.4151L23 29.6954L23.109 29.429C23.1672 29.2795 23.3053 29.0412 23.4179 28.8963C23.5924 28.672 23.6615 28.6206 23.9595 28.4851C24.1485 28.4009 24.4502 28.2467 24.6319 28.1393C24.9917 27.929 25.1698 27.9009 25.3189 28.0271C25.4824 28.1673 25.5406 28.3215 25.5369 28.6393V28.929L26.7764 28.2888C28.2339 27.5411 29.6841 26.8261 30.7236 26.3495C31.8031 25.8494 31.9884 25.7513 32.6281 25.3447C32.9444 25.1391 33.2133 24.9802 33.2206 24.9942C33.2279 25.0036 33.2533 25.2045 33.2751 25.4429C33.3442 26.1765 33.2279 26.9336 32.9662 27.3962C32.7263 27.8308 32.6136 27.8963 30.8217 28.6486C29.3751 29.2608 27.4742 30.0786 25.1553 31.0927C24.7373 31.2749 24.3702 31.4665 24.283 31.546C24.1085 31.7002 24.0431 31.8497 23.6215 33.06C23.4761 33.4853 23.2144 34.2096 23.0436 34.6676C22.8691 35.1302 22.7346 35.5181 22.7419 35.5274C22.7746 35.5648 23.2398 35.2237 23.7414 34.7891L24.2794 34.3218H24.512C24.77 34.3218 24.93 34.4152 25.039 34.6255C25.1444 34.8358 25.1117 35.0928 24.8972 35.677C24.7882 35.9714 24.6465 36.392 24.581 36.6116L24.4647 37.0135L23.3016 37.4761C22.6619 37.7332 22.1167 37.9621 22.0877 37.9902C22.0586 38.0135 21.7024 39.322 21.2989 40.8875L20.5575 43.7381L25.9004 46.7429C30.9017 49.5608 31.2433 49.7431 31.287 49.6636C31.316 49.6169 32.9407 46.8784 34.8998 43.5746L38.4617 37.5696L38.1819 37.5416C37.5713 37.4855 37.3168 37.0976 37.2696 36.149L37.2478 35.663L36.8952 36.2658C36.1283 37.5883 35.6849 38.1631 35.1978 38.4715C34.9616 38.6211 34.8962 38.6444 34.649 38.6444C34.4055 38.6444 34.3546 38.6304 34.2165 38.5136C33.9911 38.322 33.9221 38.0977 33.9257 37.5462C33.9257 37.3032 33.9402 36.9481 33.9584 36.7565C33.9802 36.5649 33.9911 36.406 33.9839 36.3966C33.9802 36.392 33.8312 36.6303 33.6495 36.9341C33.1079 37.836 32.4355 38.85 32.0502 39.3454C31.1561 40.495 30.2293 40.7847 29.7604 40.051C29.6114 39.8174 29.4224 39.3173 29.3933 39.0743C29.3788 38.9809 29.357 38.8921 29.3461 38.8781C29.3315 38.8687 28.9681 39.4716 28.5392 40.2193L27.7613 41.5791L27.5324 41.7193C27.1253 41.9623 26.7982 41.8876 26.6491 41.509L26.5692 41.3128L26.1112 41.9203C25.8604 42.2567 25.5806 42.5932 25.4933 42.668C25.3407 42.7941 25.308 42.8035 24.959 42.8035C24.6065 42.8035 24.581 42.7988 24.432 42.6633C24.1303 42.3923 24.0068 41.8315 24.1049 41.1866C24.1303 41.0277 24.1449 40.8969 24.1376 40.8875C24.1303 40.8828 23.9232 41.1679 23.6724 41.5231C23.2035 42.1913 23 42.4016 22.7383 42.4997C22.6074 42.5511 22.5711 42.5465 22.4475 42.4717C22.1967 42.3128 22.1386 41.8969 22.3094 41.4483C22.5275 40.8688 23.7814 39.3127 26.0349 36.8172C27.3252 35.3919 27.4706 35.2611 27.8122 35.2237C28.0667 35.2003 28.2266 35.2985 28.3683 35.5602C28.6446 36.0929 28.5682 36.5882 28.1684 36.8406L28.0158 36.9387H28.1721C28.2956 36.9387 28.3502 36.9668 28.4628 37.0976C28.59 37.2472 28.5973 37.2752 28.5973 37.5322C28.5973 37.6818 28.5828 37.8967 28.5646 38.0135C28.5355 38.2145 28.5501 38.1958 28.9608 37.4995C30.182 35.4246 30.898 34.4012 31.9048 33.289C32.3483 32.7983 32.4246 32.7329 32.5336 32.7329C32.7772 32.7329 32.948 33.032 33.017 33.5788C33.0752 34.0274 33.0752 35.0882 33.0207 35.3265C32.9553 35.6209 32.7554 36.0088 32.5845 36.177C32.2901 36.4621 32.0284 36.3686 31.9121 35.934L31.8649 35.7564L31.6395 36.149C31.207 36.9107 31.0253 37.5462 30.9526 38.5416L30.9308 38.8734L31.0543 38.7612C31.476 38.3874 33.5768 35.3545 34.191 34.2283C34.8562 33.018 35.634 32.2516 36.2701 32.1862C36.5427 32.1535 36.6844 32.2376 36.7753 32.4853C36.8334 32.6348 36.8334 32.6862 36.7971 32.8684C36.7716 32.9853 36.6953 33.1815 36.6262 33.303C36.4663 33.5928 36.1138 34.6489 35.9429 35.3686C35.8666 35.6723 35.8121 35.9247 35.8194 35.934C35.8339 35.9527 36.4591 35.0181 36.8371 34.4059C37.7639 32.9105 38.2546 31.9011 39.0833 29.7889C40.0792 27.2514 40.6534 25.9195 41.0496 25.2186C41.1514 25.0457 41.344 24.6204 41.4821 24.2746C41.8783 23.2745 42.031 23.0596 42.3544 23.0596C42.6888 23.0596 42.8306 23.2886 42.9178 23.9849C42.9869 24.5082 42.9869 24.9242 42.9178 25.2933C42.8415 25.7046 42.7397 25.9382 42.5689 26.0831C42.2709 26.3354 41.6602 27.3682 41.2895 28.2514C41.0641 28.7888 40.7915 29.6346 40.2609 31.4572C40.0137 32.3077 39.6866 33.3731 39.534 33.8171C39.3813 34.261 39.2177 34.7704 39.1705 34.948L39.0833 35.2704L39.3486 35.2424C39.4903 35.2284 39.6866 35.191 39.7775 35.1629L39.9483 35.1069L44.448 27.5084C46.9268 23.3306 48.9586 19.8959 48.9622 19.8725C48.9695 19.8538 48.9622 19.8351 48.9441 19.8398C48.9295 19.8398 46.8069 20.5454 44.2263 21.4053ZM37.226 29.0225C37.375 29.1346 37.4186 29.2608 37.4404 29.6066C37.4731 30.2422 37.3314 30.8403 37.0479 31.2515C36.4082 32.1768 35.6921 31.7329 35.8412 30.5085C35.8957 30.0739 35.9938 29.8309 36.1901 29.6674C36.2737 29.5973 36.43 29.4431 36.539 29.3216C36.9098 28.915 37.0224 28.8683 37.226 29.0225ZM30.9925 31.2515C31.2688 31.4525 31.3451 31.8918 31.1815 32.3357C31.0507 32.6955 30.8399 33.0133 30.1566 33.8825C29.4951 34.7283 29.3242 34.8826 29.0625 34.8826C28.7827 34.8826 28.5864 34.5367 28.6518 34.1676C28.6882 33.9573 28.6809 33.9713 29.0735 33.3404C29.5096 32.6395 29.7858 32.1348 29.9312 31.789C30.1093 31.3544 30.3492 31.1534 30.6872 31.1487C30.7926 31.1487 30.9017 31.1815 30.9925 31.2515Z" fill="#42002B" fill-opacity="0.9"/>
<path d="M36.6479 30.2093C36.4734 30.3588 36.4371 30.4476 36.4335 30.7467V30.9336L36.5897 30.714C36.6878 30.5784 36.7605 30.4196 36.786 30.2934C36.8078 30.1859 36.8223 30.0924 36.8187 30.0831C36.8114 30.0784 36.7351 30.1345 36.6479 30.2093Z" fill="#141414"/>
<path d="M30.5239 32.0558C30.4948 32.1212 30.4439 32.224 30.4148 32.2895C30.3857 32.3549 30.3312 32.4624 30.2985 32.5325C30.2621 32.6026 30.2549 32.6446 30.2767 32.6259C30.3276 32.5839 30.6511 32.0138 30.6511 31.967C30.6511 31.8969 30.5748 31.9483 30.5239 32.0558Z" fill="#141414"/>
<path d="M27.4341 37.252C27.0779 37.5417 26.7981 37.9904 26.4783 38.7661C26.2748 39.2521 25.9513 40.2802 25.9695 40.355C26.0022 40.4858 26.6382 39.6774 26.7836 39.3129C26.8163 39.2334 26.8635 38.953 26.889 38.6867C26.918 38.4203 26.958 38.1539 26.9834 38.0978C27.0052 38.0371 27.1724 37.7941 27.3541 37.5558C27.6849 37.1305 27.7139 37.023 27.4341 37.252Z" fill="#141414"/>
</svg>
