<svg width="49" height="20" viewBox="0 0 49 20" fill="none" xmlns="http://www.w3.org/2000/svg">
<g clip-path="url(#clip0_45:1103)">
<path d="M21.1791 5.04556C20.7676 5.14581 20.4439 5.40498 20.2896 5.75217C20.2103 5.93065 20.1888 6.07979 20.2167 6.21671C20.2703 6.46121 20.3646 6.59569 20.5575 6.69349C20.684 6.75706 21.0505 6.77906 21.282 6.73505C22.0087 6.60302 22.5488 5.95265 22.358 5.4441C22.2895 5.26317 22.1351 5.11158 21.9572 5.04801C21.7772 4.98444 21.4363 4.98444 21.1791 5.04556Z" fill="#580606" fill-opacity="0.7"/>
<path d="M39.7508 6.33416C38.8506 6.87205 38.0361 7.39773 37.1144 8.02853C36.5356 8.42707 35.6011 9.09699 35.4274 9.24125C35.2302 9.40506 35.1338 9.76447 35.1959 10.1141C35.2538 10.454 35.2688 10.476 36.2034 11.5762C36.6771 12.1337 37.0736 12.6153 37.0843 12.6471C37.1144 12.7351 37.1079 12.9161 37.0736 12.9919C37.035 13.0725 36.9086 13.2046 36.8271 13.2461C36.7907 13.2657 36.5571 13.2804 36.1412 13.2877L35.511 13.2999L35.2474 13.9601C35.1016 14.3219 34.9687 14.6569 34.9494 14.6985L34.9194 14.7791L36.0062 14.762L37.0929 14.7474L37.2365 14.6667C38.0575 14.1997 39.0756 13.3659 39.2964 12.9821C39.4465 12.7229 39.4443 12.4026 39.29 12.0505C39.1635 11.7596 39.17 11.7474 39.6265 11.454C40.216 11.075 40.7733 10.6496 41.2277 10.2388C41.4442 10.0408 41.4892 9.98697 41.5342 9.8745C41.605 9.69846 41.6307 9.47597 41.6028 9.28281C41.5642 8.99675 41.5342 8.94296 41.1119 8.42218C40.8933 8.15323 40.7025 7.90139 40.6897 7.86472C40.6189 7.69112 40.7175 7.50042 40.9855 7.29504C41.1784 7.14834 41.1805 7.14589 41.1398 7.09455C40.9748 6.8745 40.291 6.02609 40.2803 6.02609C40.2717 6.02609 40.0338 6.16545 39.7508 6.33416ZM38.8677 8.57621C38.9063 8.59577 39.0628 8.7498 39.2171 8.91851C39.4336 9.15567 39.5022 9.24858 39.5215 9.32193C39.5558 9.44907 39.5536 9.52731 39.5151 9.63734C39.485 9.72291 39.4122 9.77914 38.737 10.2657C38.3297 10.5615 37.961 10.8134 37.9182 10.8256C37.7874 10.8672 37.7167 10.8085 37.3801 10.3904C37.2108 10.1801 37.0586 9.97963 37.0415 9.9454C37.0029 9.85738 37.0222 9.69601 37.0886 9.56643C37.1358 9.47352 37.2172 9.40751 37.7295 9.04076C38.1347 8.7498 38.3554 8.608 38.4347 8.58355C38.5826 8.53709 38.7798 8.53465 38.8677 8.57621Z" fill="#05011F" fill-opacity="0.7"/>
<path d="M45.8892 7.12637C45.6642 7.17283 45.5163 7.24129 45.0254 7.5298C44.0523 8.09703 43.0127 8.75473 42.3847 9.19728C41.9367 9.51513 41.7352 9.76696 41.6409 10.1313C41.6023 10.2804 41.5959 10.542 41.628 10.6716C41.673 10.8599 43.0427 12.4931 43.3535 12.7327C43.6429 12.9552 44.0351 13.053 44.4295 12.9992C44.7211 12.9601 44.8475 12.9185 45.2269 12.7352C46.5752 12.0824 47.7862 11.3 48.5386 10.5934C48.7958 10.3489 48.858 10.2633 48.918 10.0701C48.9544 9.95033 48.9609 9.88432 48.9544 9.69361C48.9394 9.3342 48.8923 9.22173 48.6286 8.9161C48.1206 8.32197 47.3018 7.48823 47.066 7.32686C46.8838 7.20217 46.5945 7.12393 46.2686 7.11415C46.1165 7.10926 45.945 7.11415 45.8892 7.12637ZM45.9107 8.94789C46.005 8.97967 46.0757 9.0408 46.3458 9.31953C46.5216 9.50046 46.6823 9.68383 46.7016 9.72784C46.7809 9.89654 46.7188 10.1655 46.5752 10.2877C46.4187 10.4198 45.3598 11.0775 45.1862 11.1484C45.1326 11.1728 45.019 11.1899 44.929 11.1924C44.6846 11.1948 44.6032 11.1435 44.2988 10.789C43.913 10.3391 43.8658 10.2217 43.9708 9.98701C44.0094 9.89899 44.0609 9.8452 44.2323 9.71317C44.4917 9.51513 45.3641 8.95278 45.4841 8.90877C45.5592 8.88187 45.7714 8.90143 45.9107 8.94789Z" fill="#05011F" fill-opacity="0.7"/>
<path d="M7.89241 7.29976C7.42299 7.36333 6.89569 7.57605 6.55273 7.84011C6.39626 7.95991 6.18406 8.19952 6.08974 8.35844C5.87111 8.72275 5.51743 9.63962 5.16804 10.7521C4.98156 11.3438 4.94727 11.5027 4.94727 11.7741C4.94727 11.9501 4.95584 12.0088 5.00085 12.1237C5.08231 12.3242 5.25593 12.51 5.47028 12.6274C5.79394 12.8034 5.71678 12.7985 8.53974 12.7936L11.0433 12.7863L11.3091 12.0528C11.4549 11.6494 11.5749 11.312 11.5749 11.3047C11.5749 11.2949 11.4613 11.2655 11.3241 11.2362C11.1848 11.2069 11.0348 11.1726 10.9919 11.158C10.8483 11.1164 10.8118 10.9403 10.8804 10.6396C10.8976 10.5589 11.1634 9.77898 11.4699 8.90612C11.7743 8.0357 12.025 7.30954 12.025 7.29732C12.025 7.26798 8.12176 7.27042 7.89241 7.29976ZM9.18065 8.88656C9.37356 8.88656 9.49574 8.89634 9.49574 8.91101C9.49574 8.92323 9.33069 9.45135 9.12706 10.0846L8.76052 11.2337L8.26538 11.2386C7.34797 11.2509 7.36297 11.2509 7.29438 11.1946C7.09718 11.0284 7.08646 10.8328 7.24508 10.2949C7.47229 9.5247 7.71022 9.09683 7.98887 8.95502C8.14106 8.87922 8.24823 8.86455 8.56332 8.87433C8.72837 8.88167 9.00488 8.88656 9.18065 8.88656Z" fill="#580606" fill-opacity="0.7"/>
<path d="M12.5911 7.35857C12.5739 7.40747 12.4646 7.73999 12.3489 8.0994C12.231 8.45881 12.1302 8.77177 12.1216 8.79378C12.1066 8.8329 12.1259 8.83779 12.3274 8.83779C12.709 8.84023 12.8118 8.94048 12.7926 9.28767C12.7818 9.44659 12.7025 9.69109 11.843 12.163C11.3286 13.6495 10.8999 14.8842 10.8956 14.9062C10.8849 14.9478 10.9406 14.9503 11.8494 14.9503H12.8161L12.8569 14.8207C12.8804 14.7522 13.0412 14.251 13.2148 13.7106L13.5299 12.7278L14.9489 12.7204L16.3657 12.7131L16.5222 12.6471C16.773 12.5444 16.9873 12.3879 17.1996 12.1581C17.3839 11.9625 17.4118 11.9185 17.6132 11.5102C18.0269 10.6813 18.372 9.83045 18.5307 9.26077C18.7471 8.48082 18.7407 8.5126 18.73 8.27055C18.7236 8.09696 18.7107 8.01627 18.6721 7.92581C18.5628 7.67153 18.2906 7.45148 17.9433 7.33901C17.7804 7.28767 17.7697 7.28522 15.2018 7.27789L12.6232 7.27055L12.5911 7.35857ZM16.3657 8.95026C16.6272 9.09207 16.5608 9.54928 16.1364 10.5053C16.0056 10.8011 15.9478 10.9087 15.877 10.9772C15.7613 11.0896 15.6048 11.1728 15.4462 11.207C15.2876 11.2412 14.0829 11.2437 14.0829 11.2119C14.0829 11.1972 14.2566 10.7033 14.4688 10.1092C14.6831 9.51505 14.8653 9.00405 14.876 8.96982L14.8975 8.91114H15.5962C16.19 8.91114 16.3057 8.91603 16.3657 8.95026Z" fill="#580606" fill-opacity="0.7"/>
<path d="M25.0542 7.29741C23.7617 7.30474 22.6985 7.31697 22.6921 7.3243C22.6835 7.33164 22.5592 7.67638 22.4113 8.08958L22.1455 8.83775H22.4284C22.6964 8.83775 22.7135 8.8402 22.7907 8.90132C22.8936 8.98201 22.9493 9.13604 22.9193 9.25584C22.9086 9.3023 22.4584 10.5933 21.9183 12.1263C21.3781 13.6593 20.9323 14.9282 20.928 14.9429C20.9194 14.9673 21.1209 14.9747 21.8883 14.9747H22.8614L23.2472 13.916L23.6331 12.8598L24.9406 12.8475L26.2481 12.8353L26.4389 12.7668C26.9448 12.5859 27.4099 12.2021 27.6886 11.7326C27.7464 11.6348 27.9522 11.092 28.3273 10.048C28.8246 8.6666 28.8825 8.49056 28.8911 8.34142C28.9039 8.1287 28.8696 7.97712 28.7753 7.82064C28.5845 7.4979 28.0894 7.26807 27.62 7.27785C27.5021 7.28029 26.3467 7.29007 25.0542 7.29741ZM26.5118 8.96C26.6147 9.0309 26.6661 9.14337 26.6661 9.29496C26.6661 9.40499 26.6254 9.52968 26.3767 10.1874C25.9588 11.2999 26.0252 11.251 24.962 11.2387C24.5741 11.2338 24.2525 11.2265 24.2504 11.2241C24.2461 11.2192 24.424 10.6984 24.6448 10.0651L25.0456 8.9111H25.7423C26.4025 8.9111 26.4453 8.91355 26.5118 8.96Z" fill="#05011F" fill-opacity="0.7"/>
<path d="M1.89913 7.33897C1.89055 7.36342 1.46829 8.58592 0.962424 10.0578C0.454418 11.5297 0.0300088 12.7595 0.0192913 12.7913L0 12.85L0.979572 12.8329C1.51973 12.8255 1.96557 12.8133 1.96986 12.8084C1.97415 12.8035 2.23137 12.0529 2.54217 11.1385C2.85083 10.2265 3.1252 9.43188 3.15092 9.3732C3.21951 9.22161 3.38242 9.03335 3.50459 8.96978C3.61177 8.9111 3.61606 8.9111 4.45844 8.9111H5.30726L5.58592 8.12137L5.86671 7.32919L5.15936 7.31452C4.76925 7.30474 3.8797 7.29741 3.18093 7.29741C1.99344 7.29741 1.91199 7.29985 1.89913 7.33897Z" fill="#580606" fill-opacity="0.7"/>
<path d="M19.6993 7.9992C19.277 9.18502 18.7197 10.7963 18.6425 11.0505C18.5118 11.4809 18.4861 11.8818 18.574 12.1312C18.6404 12.3195 18.9426 12.5933 19.2234 12.7205L19.367 12.7865L20.1044 12.7938C20.5524 12.7987 20.8482 12.7938 20.8611 12.7792C20.8718 12.7669 21.0047 12.4222 21.1547 12.0139L21.4291 11.2706L21.2019 11.2584C21.0218 11.2486 20.9554 11.2339 20.8868 11.1924C20.7217 11.0921 20.6381 10.9161 20.6746 10.7523C20.681 10.7131 20.9489 9.94541 21.2683 9.04565C21.5877 8.14345 21.8535 7.38795 21.8599 7.3635C21.8685 7.32438 21.8128 7.32194 20.9039 7.32194H19.9394L19.6993 7.9992Z" fill="#580606" fill-opacity="0.7"/>
<path d="M31.1773 7.38285C30.3949 7.58823 29.8012 7.98921 29.5354 8.49288C29.4604 8.63469 28.618 10.911 28.558 11.1335C28.5044 11.3364 28.4808 11.664 28.5065 11.8767C28.5515 12.2753 28.7252 12.5442 29.0231 12.6836L29.141 12.7374L31.8525 12.7447L34.564 12.7496L34.8277 12.0234C34.9713 11.6225 35.0892 11.2875 35.0892 11.2802C35.0892 11.2704 35.0056 11.2606 34.9027 11.2533C34.5104 11.2313 34.3282 11.0014 34.4097 10.6322C34.429 10.5516 34.6905 9.79361 34.9927 8.94765C35.2971 8.09923 35.5479 7.38774 35.5543 7.36329C35.565 7.32417 35.4557 7.32173 33.4794 7.32417H31.3917L31.1773 7.38285ZM32.9607 8.88163L33.0271 8.89875L32.6606 10.0772L32.2919 11.2582H31.5503H30.8108L30.7486 11.1848C30.6179 11.0283 30.6586 10.7227 30.9008 10.065C31.1452 9.39997 31.4517 8.94276 31.7046 8.86941C31.7775 8.8474 32.8621 8.85963 32.9607 8.88163Z" fill="#05011F" fill-opacity="0.7"/>
</g>
<defs>
<clipPath id="clip0_45:1103">
<rect width="48.9567" height="19.9747" fill="white"/>
</clipPath>
</defs>
</svg>
