<svg viewBox="0 0 5000 3000" xmlns="http://www.w3.org/2000/svg"><g fill-rule="evenodd"><g fill="#fff"><path d="M4775.5 1922.7c-14.866 1.31-15.592-11.234-30.477-9.94v-64.724c35.436.11 31.183 39.124 30.477 74.665zM4745.1 1609.1c-17.792-5.771-27.385-19.601-50.744-19.924-3.946-33.737 6.922-52.929 5.087-84.614 31.673 18.681 51.33 49.201 45.656 104.54zM4699.4 2082c-34.385-4.255-20.305-57.328-20.305-89.61v-109.51c59.343 22.468 18.762 141.13 20.305 199.12zM4653.7 1579.2c-16.878-8.332-27.483-22.834-45.676-29.872 3.722-36.826-5.675-60.809-5.086-94.58 59.628-.374 53.492 63.703 50.762 124.45zM4643.6 2106.9c-7.06 19.584-34.12-21.31-50.761-24.885-4.704-89.976-6.382-182.9-10.142-273.79 96.536 24.783 37.28 202.36 60.903 298.68zM4547.1 1629v139.38c-21.463-5.498-48.308-5.736-76.153-4.988-3.338-44.817 6.735-102.83-5.066-139.37 22.289-13.37 51.646 8.954 81.22 4.979zM4542 2032.2h-71.067v-214.04c27.668-2.247 41.729 8.877 71.067 4.971.884 51.081-.628 141.77 0 209.07zM4521.7 1424.9v114.5c-22.573-7.72-31.99-28.349-55.829-34.843-3.162-35.081-3.338-73.064-10.142-104.54 18.792 11.412 45.332 15.268 65.971 24.885zM4410.1 1439.8c-21.13-2.493-29.613-17.413-50.763-19.906 3.417-24.928-4.703-38.536-5.066-59.745 43.575 2.068 66.206 24.698 55.83 79.652z"/></g><path d="M4344.1 2699.2c.942 4.238-1.973 4.707-5.066 4.97-110.15.434-243.35.383-350.25 4.987-42.652 1.847-99.355 20.264-121.83-19.915 143.82-11.617 309.63-1.66 461.92-4.97 2.846 7.166 7.923 12.154 15.228 14.928zM4339 1579.2c-38.911 35.83-188.59 37.558-233.5 4.979 67.69-11.591 157.34-1.677 233.5-4.979zM4293.3 2569.8c-27.178-103.14 5.028-233.89-5.066-353.44-17.183-66.128-155.75-13.183-208.13-44.8 11.626-27.064 57.685-14.928 91.362-14.928 78.244 0 127.28-12.4 142.14 49.771 13.922 58.282-5.087 162.85-5.087 238.95 0 46.725 12.097 101.97-15.228 124.45zM4283.2 1808.2c17.025 39.711 12.5 100.56 15.228 154.32-51.352-7.71-107.95-10.306-162.43-14.945 6.6-48.741-27.865-122.96 5.086-149.34-59.088-153 222.81-93.201 142.12 9.958zM4293.3 1997.3v44.801h-25.371c-2.72-19.269 9.053-24.299 5.066-44.801h20.305z"/><path d="M4242.5 2525c-15.494-3.592-18.488 5.106-30.458 4.987v89.593c-38.332-2.758-67.768 3.225-101.52 4.988 5.351-30.12-1.267-48.52-35.514-39.831-5.067-68.205-7.61-157.4-10.163-228.97-1.13-31.72-15.327-66.393 15.229-84.622 10.241 21.473 6.823 56.367 30.457 64.716 3.947 17.14-2.818 23.77-20.285 19.916v169.24c11.085 7.31 28.425-21.711 45.676-24.886 8.856-72.605-10.799-173.19 25.391-219.02-2.916-12.383-28.494-28.094-20.305-34.86 30.586-.136 62.477-1.55 86.297 4.987 24.025 72.648 12.744 179.94 15.199 273.77zM4004 2574.8c-28.11-9.626-15.091-51.498-15.229-74.665-.5-91.575 8.415-188.16 5.067-288.72-32.273-67.907-203.93.894-258.85-44.8 85.108 1.167 253.66-36.366 279.18 39.814 0 126.15-1.906 250.39-10.173 368.37zM3988.8 1962.5c-27.982-9.03-15.11-52.145-15.228-74.664-.423-76.248.304-174.45 0-253.89-23.565-69.804-182.29-7.063-233.5-49.779 89.555 3.456 242.4-38.136 263.95 34.852 13.707 46.426-2.032 123.72-5.066 189.16-2.71 58.06 9.985 114.68-10.163 154.32zM4004 1992.4c3.908 23.753-7.942 32.052-5.066 54.775h-35.554c-2.838-22.724 8.994-31.022 5.087-54.775H4004z"/><path d="M3963.4 2375.7v199.12c-20.178 8.409-53.541 3.923-81.2 4.987 2.72-73.652 7.403-145.4 10.142-219.03-19.618-.978-37.419-.178-50.762 4.97-35.367 46.638-23.241 139.85-25.392 219.03h-65.99v-209.08c-7.747-22.537 33.158 2.647 25.391-19.898 13.216-31.217-27.924-9.14-25.391-29.872 14.935-110.04 190.66-103.66 208.12 0-5.007 19.966-21.09 29.09-25.39 49.771h30.467zM3943.1 1957.5h-197.96c-15.494-55.584 5.449-117.02 0-179.21-4.87-18.034 21.915-5.072 25.391-14.946-30.644-38.366 16.642-76.034 35.514-109.51 175.82-59.074 134.26 161.92 137.06 303.66zm-71.067-268.82c-15.268-4.92-22.652-17.601-45.677-14.928-27.541 17.804-19.117 70.844-25.372 109.52 40.698 18.17 8.955 107.35 25.372 149.34 27.1-1.71 41.846 18.221 65.992 4.97 9.317-105.51-33.796-150.4-20.315-248.9z"/><path d="M3892.3 1937.6c-24.144 13.251-38.891-6.68-65.991-4.97-16.417-41.992 15.327-131.17-25.371-149.34 6.254-38.681-2.17-91.721 25.371-109.52 23.034-2.673 30.418 10.009 45.676 14.928-13.471 98.503 29.642 143.4 20.315 248.9z" fill="#fff"/><path d="M3674 2594.7c-28.876-116.03 5.39-294-30.457-403.21-83.055-13.635-196.41 27.396-243.64-14.928 71.646-14.374 163.48-8.928 248.72-9.958 53.022 27.643 35.514 139.7 35.514 243.92 0 68.921 7.864 139.75-10.143 184.18zM3669 1370.1c-22.858-8.91-18.989-65.873-20.305-94.58-3.888-83.754 11.93-193.34-25.39-248.9-83.017-6.51-192.73 13.123-258.87-9.958 1.914-26.988 40.403-14.307 55.848-14.928 92.256-3.71 238.93-21.549 258.87 49.78 23.545 84.204-9.799 240.11-10.152 318.58zM3679.1 1609.1c-6.716 117.86 13.441 262.08-10.143 363.38-28.228-10.341-15.11-51.26-15.248-74.665-.48-88.47-7.884-187.57-5.066-278.75-42.288-54.792-194.07-2.17-258.87-34.851 80.16-15.379 243.96-27.048 289.32 24.886zM3663.9 1997.3c3.967 20.494-7.806 25.532-5.085 44.801h-25.372V1997.3h30.457zM3653.7 797.66c-3.318 28.272 6.677 69.601-5.066 89.601h-10.162c-22.632-10.988-4.144-62.307-10.143-89.601h25.37zM3653.7 1414.9v49.78h-25.371v-54.75c14.345-4.11 13.146 7.021 25.371 4.97z"/><path d="M3613.1 2604.7h-20.304c-13.138-20.315 9.21-64.877 10.162-99.551 1.365-49.72-17.702-100.32-20.306-144.37-111.46 7.567-77.242 146.51-86.295 243.92-40.198-8.707-10.967-85.491-71.066-74.666-13.825 18.801 18.046 61.686 10.162 74.666-36.938 4.706-18.528-44.878-40.62-54.758 6.785-66.375-17.3-163 20.305-199.12-63.114-100.89 114.74-154.14 187.82-94.58 7.001 32.367 30.663 62.503 10.142 94.58 38.734 56.614 20.866 193.37 0 253.88zM3613.1 1380.1c-30.034-45.217 13.363-162.45-30.456-194.15 3.681-11.336 4.526-25.43 10.142-34.851-12.154-73.908-135-62.673-177.66-39.822 5.794-73.473 186.61-51.439 197.96 14.937-3.574 81.712 22.602 186.61.01 253.88zM3608.1 1952.5c-19.274-30.851-11.468-88.3-15.229-134.39-10.849-17.55-50.221-7.149-76.133-9.958-32.431 17.966-16.574 83.295-20.305 129.42 10.526 11.251 44.027-.034 50.762 14.928-24.487 33.098-99.718-2.042-152.29 9.975v-189.17c-4.145-19.014 10.819-19.286 20.304-24.903-1.07-9.378-20.344-25.864-10.142-29.856 14.935-36.102 41.69-63.388 76.133-69.711 174.65-32.043 148.12 165.35 126.9 303.66zM3344.1 289.9v14.928c5.214 16.724-15.778 7.753-25.371 9.957 6.804 131.04 13.078 262.62 20.304 393.26-23.181 7.133-13.215 46.784-30.476 59.728-39.098-28.332 3.3-55.524 10.162-79.635 14.463-50.775-19.618-115.94-5.066-179.21h-86.316c-3.24-18.4 6.578-49.592-5.067-59.728 18.714-11.524 59.137-1.745 86.276-4.987 3.76-40.18-8.246-64.92-5.066-104.54 2.298-23.838-34.542-9.277-25.372-39.822 3.476-21.481 46.107-4.57 65.99-9.95zm-86.295 184.19c-.707 20.613 35.327 5.183 50.762 9.95v-19.908c-15.435 4.766-51.468-10.664-50.762 9.958zM3313.7 2604.7c-17.988-3.958-9.76-33.592-15.248-49.771-8.13-19.6 21.915-1.745 20.305-14.945-5.538-105.75-9.701-212.84-15.23-318.59-41.69-57.014-199.15-.502-263.95-34.843 22.574-26.128 72.235-14.945 116.75-14.945h126.9c10.742 12.715 24.929 22.009 40.6 29.873-8.09 131.39 43.035 306.88-10.123 403.22zM3323.8 1380.1c-43.3-23.056-25.371-95.959-25.371-154.32v-174.23c-53.777-61.746-242.45 8.8-304.55-44.801 98.834 2.638 282.97-35.26 335 29.873 3.595 119.65-8.453 223.99-5.076 343.48zM3323.8 225.18c-6.294 18.851-66.737 10.681-81.2 4.97v-9.957c6.48-21.83 53.099-4.315 76.134-9.95-.432 7.073-.835 14.103 5.066 14.937zM3308.6 1972.4c-23.584-93.022-3.456-228.9-10.142-338.5-40.158-67.984-208.87-2.987-274.1-34.842 12.735-26.69 75.27-14.937 116.75-14.937 87.337 0 162.68-7.421 182.72 49.779-3.3 107.58 4.81 234.79-15.229 338.5z"/><path d="M3308.6 464.13v19.907c-15.434-4.775-51.468 10.655-50.762-9.95-.706-20.621 35.328-5.19 50.762-9.957z" fill="#fff"/><path d="M3293.4 937.04c-101.47 18.494-240.15 16.137-335 0-29.957-6.809 1.59 19.277-20.304 14.928-132.71 18.902-288.96-37.703-375.62 14.928-75.691-14.375-183.52 28.664-223.33-14.928 280.01-49.295 636.35-48.835 959.35-39.822 1.62 11.541-.815 19.115-5.085 24.894zM3293.4 792.67c-191.22 13.362-445.7 22.647-629.41 9.958 64.783-34.358 185.27-14.094 279.18-19.907 14.001-85.108-7.306-178.66 0-273.79-5.313-16.358-55.053 10.851-45.677-19.915-9.593-30.97 26.697-16.945 45.677-19.915-13.177-43.48 6.018-118.74-15.249-154.31 14.59-5.804 57.547-9.702 60.924-9.957 5.519 20.349-5.43 24.545-15.228 29.873 7.169 143.97 13.501 288.74 20.305 433.08h294.4c-4.193 14.06 7.158 12.894 5.077 24.885zM3288.3 1464.7h-20.304c4.044-22.562-2.956-55.984 15.228-64.707 18.803 1.66 11.154 55.167 5.076 64.707zM3293.4 2007.3v44.8h-25.372v-44.8h25.372zM3268 2599.7c-25.273-51.533-11.468-141.42-20.305-209.08h-35.514c-8.071 60.102-9.917 126.33-10.162 194.14.098 14.859 37.624-7.013 30.457 14.945-46.255 21.642-125.01-9.77-192.89 0 10.545-78.146-29.112-180.12 15.229-228.99 8.13-19.601-21.916-1.728-20.286-14.928 6.059-126.35 218.12-131.36 238.56-24.903 9.553 49.89 10.742 189.08-5.097 268.81zM3242.6 1400c-27.196 6.748-15.729-24.409-30.457-29.873-22.612 1.08-22.671 24.247-35.534 34.852h-55.848c-2.72-20.57-7.442-39.175-10.142-59.737h-55.849v-49.779h192.89c10.26-30.835-26.373-81.159 10.143-89.61 28.287 58.792 13.873 150.04-15.2 194.15zM3257.8 1977.4c-23.142-9.175-18.694-53.788-20.286-84.622-1.11-21.507.845-45.115 0-64.716-58.008 7.83-37.762 92.401-45.676 149.34h-157.34c3.663-56.699-8.366-98.01-5.105-154.32-15.779-19.362-49.211-21.413-50.743-54.759 45.352-12.945 41.022 22.826 76.134 19.915-3.584 18.452 8.67 21.362 5.086 39.83 16.476-2.894 23.604 3.37 35.534 4.97 15.513-25.353-6.46-56.596 0-89.592-35.396-2.809-30.36 23.856-66.01 9.94.157-95.175 123.08-130.14 213.21-89.592 39.294 46.273 30.428 231.89 15.2 313.61zM3257.8 1166c-29.299 5.524-24.065-22.86-35.514-34.843-34.287-33.788-105.39-26.8-147.2-4.979 32.136-77.652 206.59-56.204 182.72 39.822zM3212.2 205.27v29.864c-23.801-3.217-60.788 6.51-76.153-4.979v-9.957c11.624-18.468 51.4-9.345 76.153-14.928zM3212.2 877.29h-30.478c2.494-15.711-9.15-17.575-5.066-34.852h-40.62c-5.94-7.447-6.313-20.358-15.229-24.885 18.714-11.515 59.138-1.736 86.276-4.97-3.84 27.03 8.071 38.57 5.116 64.707z"/><path d="M3181.7 459.15c2.72 19.26-9.053 24.298-5.066 44.801h-60.925V459.15h65.99zM3105.6 220.19c-6.313 18.86-66.756 10.698-81.21 4.987v-9.957c6.481-21.838 53.099-4.333 76.154-9.958-.472 7.072-.854 14.102 5.056 14.928zM3075.1 454.17c3.966 22.154-6.765 29.873-5.086 49.779h-55.849c3.583-16.4 8.17-31.822 10.162-49.779h30.772zM3044.6 1185.9c-6.54 16.809 1.129 47.559-20.286 49.78-21.022.706-5.292-34.639-10.162-49.78h30.448zM2988.8 215.22v24.886c-23.78-3.217-60.767 6.51-76.133-4.979v-9.949c6.48-21.839 53.119-4.323 76.133-9.957zM2963.4 1405c-30.035-106.42 23.093-225.76-5.067-318.59-30.722-101.3-213.88-6.681-279.18-74.674 101.54-4.996 265.06-27.66 304.55 44.801v184.18c0 60.528 13.078 128.82-20.305 164.28zM2983.7 2604.7c-30.546-18.486-23.359-71.014-25.372-114.5-4.39-94.614 12.5-224.05-30.478-283.75-82.937-11.787-188.99 22.621-243.64-9.957 94.661-1.55 262.71-31.95 299.49 39.83v368.37zM2968.5 1977.4c-27.61-9.66-17.703-65.779-20.286-104.54-4.428-66.129-11.164-140.95-15.229-214.05-14.207-14.281-22.553-34.324-40.619-44.809-68.024-7.966-171.65 18.996-208.12-19.906 85.009-2.034 238.5-28.137 279.18 29.864-1.816 114.55 24.232 257.7 5.077 353.44zM2938 1414.9c.305 21.864-2.032 41.15-10.162 54.767-17.781-5.78-11.085-35.575-15.209-54.767H2938zM2938 2062.1h-25.371c2.592-24.017-10.378-63.268 20.305-59.745-3.544 25.056 8.61 34.698 5.066 59.745z"/><path d="M2933 2475.2c3.682 53.388-8.346 91.372-5.106 144.35h-238.56c30.477-54.724 8.67-160.76 15.249-238.93 8.915-2.86 29.819 6.017 30.457-4.987 3.662-21.839-16.936-19.898-35.533-19.898 10.564-137.04 249.99-126.5 223.33 34.843-33.884-24.834-29.132-87.567-86.297-89.61-23.603 64.7-8.11 202.34-5.066 288.72 25.853 5.456 24.144-16.128 25.392-34.825 24.467-2.562 64.488 10.152 60.905-19.916-17.566-15.277-31.646 15.208-60.905 4.97v-69.694c29.328-2.22 51.99 2.085 76.133 4.979zM2927.9 1176c-11.988-14.783-21.552-31.95-30.438-49.779-31.125-11.226-82.329-22.818-121.83-9.958-27.649 12.715-22.995 57.1-71.047 49.78 13.5-115.92 220.4-114.84 223.31 9.957zM2922.8 1390c-47.621 22.98-138.55 3.498-203.03 9.958 3.505-38.282-8.591-61.278-5.086-99.56h192.89c6.068 28.904 8.58 61.27 15.228 89.603zM2907.6 1858v119.47h-208.11c3.486-61.507-8.572-107.75-5.085-169.25-4.684-8.69-15.877-10.987-30.458-9.958 8.11-8.646 22.858-10.792 40.62-9.957-44.832-141.36 208.61-181.94 197.94-24.903-49.574-11.753-118.59-18.17-142.12 19.932 28.11 31.915-9.093 91.312 10.143 144.35 47.188-21.762 68.494-68.903 137.07-69.677zM2887.3 508.93v159.29h-137.06c3.506-58.18-8.552-101.1-5.066-159.29h35.533c9.956-6.902-10.663-25.711-10.162-39.83h76.153c4.506 12.17 11.832 21.592 10.163 39.83h30.438zm-121.81 24.885c1.61 36.579 7.688 68.793 10.143 104.54h81.23c-3.182-39.618 8.796-64.358 5.066-104.54-39.039-3.438-53.885-.017-96.439 0zM2877.1 230.16c-6.293 18.843-66.757 10.69-81.21 4.979v-9.95c6.48-21.846 53.099-4.331 76.133-9.957-.452 7.064-.834 14.094 5.076 14.928z"/><path d="M2861.9 533.81c3.74 40.179-8.248 64.92-5.066 104.54h-81.23c-2.456-35.754-8.533-67.959-10.143-104.54 42.554-.017 57.4-3.438 96.439 0z" fill="#fff"/><path d="M2765.5 250.07h-81.229c-8.856-43.541 44.468-26.077 76.154-29.872-3.692 15.234 8.758 14.638 5.076 29.872zM2724.8 474.09v44.792h-50.762c2.72-19.251-9.053-24.29-5.066-44.792h35.829zM2699.5 1200.9v59.737c-12.234 2.042-11.046-9.09-25.391-4.98 3.928-23.753-7.943-32.033-5.066-54.757h30.457zM2674.1 319.76c4.143 25.626-32.156 11.608-45.676 19.915-3.545 156.15 8.493 296.99 5.085 452.99-33.196-12.587-20.304-61.754-20.304-99.559 0-56.724.943-114.44-5.085-164.28h-65.971v-49.779c22.357-1.285 39.254-7.957 65.97-4.97 16.18-76.044-25.293-135.81-10.142-179.21 22.357-7.004 13.746 16.383 15.228 29.873 18.88-2.051 42.789-17.88 60.895-4.987zm-101.52 169.25c-7.845 19.422 44.783 24.545 35.534 0h-35.534zM2638.6 225.18v29.864c-23.8-3.226-60.787 6.51-76.153-4.979v-9.957c11.625-18.468 51.4-9.337 76.153-14.928zM2623.3 1997.3c-34.807.783-19.942-47.422-20.286-69.694-1.492-91.159 17.104-263.97-25.371-308.62-74.346-8.869-158.55 16.723-213.21-4.988 75.495-11.574 216.2-37.762 258.87 19.915-4.232 119.33 21.384 260.55 0 363.39zM2628.4 1395c-35.857-16.69-28.386-69.992-30.458-114.5-3.544-76.895-.02-149.53-5.086-228.99-88.17-24.111-199.96 31.609-269.01-4.97 89.212-10.008 243.28-63.465 304.55 4.97V1395zM2613.2 2629.6c-28.15-13.617-15.228-57.831-15.228-84.622v-283.75c-30.545-72.937-191.54-17.915-263.95-49.788 19.254-23.54 71.724-15.523 111.67-14.944 85.148 1.277 155.49 4.536 177.66 59.745-3.475 98.393 5.087 188.37 5.087 288.74 0 28.799 12.675 72.401-15.23 84.622zM2603 1489.6c-21.67-1.984-4.85-41.711-10.162-59.738 38.292-8.85 27.61 52.656 10.162 59.738zM2613.2 817.55c-87.72 8.553-184.42 8.307-274.1 14.936-3.338-53.158 67.306-34.843 111.67-34.843h147.2c5.107 6.613 4.802 18.519 15.228 19.907z"/><path d="M2608.1 489.01c9.239 24.545-43.379 19.422-35.534 0h35.534z" fill="#fff"/><path d="M2587.8 2022.2v49.788h-25.371V2022.2h25.371zM2582.7 1315.3c13.176 49.422-31.204 42.401-20.306 89.609-31.243-35.54-117.67-15.166-172.57-14.936v-69.686c62.506-3.378 124.91-6.92 192.88-4.987zM2577.7 1171c-12.332 8.86-70.861-70.477-126.92-29.881-10.123 29.898-41.828 38.639-65.991 54.767-26.363-116.45 181.72-141.98 192.91-24.886zM2577.7 2340.8c1.935 18.519-24.448 9.208-25.39 24.886.039 13.251 14.119 12.715 20.284 19.932-3.181 84.427 8.798 153.99 5.106 238.93-65.372 10.587-149.85 2.408-223.35 4.987 7.61-5.822 12.41-14.391 25.372-14.945 5.557-80.835-7.973-180.38 20.305-238.95-12.254-15.294-14.846-52.631-45.677-34.843 9.563-100.78 222.07-120.07 223.35 0zM2532 847.43v39.822c-26.176 7.404-25.125-11.881-40.599-14.928-11.969 4.877-4.566 28.724-15.229 34.843h-10.162c-21.67-1.974-4.832-41.711-10.142-59.728 25.371-.009 50.742-.009 76.133-.009zM2521.8 240.12v29.864c-23.78-3.217-60.787 6.51-76.153-4.97-5.017-38.129 46.61-20.69 76.153-24.895zM2496.4 489.01c-3.681 11.328-4.526 25.43-10.142 34.852h-50.763V489.01h60.904zM2405.1 284.92h-81.2v-24.886c30.988 3.856 47.483-6.52 76.134-4.979-3.683 15.217 8.748 14.638 5.066 29.864zM2400 533.81c-22.376-1.285-39.255-7.957-65.991-4.979V489.01h60.924c-3.987 20.502 7.796 25.541 5.067 44.801zM2374.6 1225.8c3.318 23.149-11.91 28.145-35.514 24.885-5.371-25.175 14.227-25.856 35.514-24.885zM2349.2 1798.2c-11.733 20-11.104 52.163-10.142 84.623h-25.381c-3.083-32.894 8.876-51.03 5.076-84.623h30.447zM2344.1 2385.6v134.39c-46.344-7.643-17.34-89.193-25.371-134.39h25.371zM2318.8 374.53v9.949c6.422 19.583-11.969 14.809-25.371 14.936-7.59 143.55 16.712 318.39-15.228 438.06-99.423.4-181.26 18.043-274.11 24.886 7.894-37.447 83.409-36.648 126.9-39.822 49.8-3.643 96.203-11.898 137.05-19.915-3.888-82.47-3.388-169.24-10.152-248.9h-45.686c-3.79 61.796 8.14 108.17 5.076 169.25-53.58-1.106-89.133 15.464-137.06 19.907v-179.2c-.736-14.01 12.44-14.366 25.381-14.928 2.71-19.27-9.062-24.307-5.086-44.81 30.663-1.855 56.104 1.405 81.22 4.98 2.778 7.226-5.93 25.728 5.076 24.885 17.055 5.115 7.904-15.481 10.153-24.885 21.63-.366 35.504-8.332 60.915-4.98 2.955-51.021-8.916-87.507-5.087-139.38 31.204-5.71 33.138 17.303 66.011 9.959zm-91.371 139.38c-.59 17.183 10.24 23.141 30.466 19.907V513.91h-30.466zm-50.753 44.801c-15.239 6.622-38.833 5.064-60.905 4.979v149.34c23.202-2.128 43.035-7.566 71.058-4.98-3.555-49.608-3.927-102.36-10.153-149.34zm-55.839-34.843c3.957 1.098 5.911 4.17 5.077 9.949 14.53.979 27.708.613 25.38-14.936-8.925 2.868-29.818-6.009-30.457 4.987zM2298.5 284.92c-6.303 18.843-66.737 10.689-81.21 4.979v-9.958c6.49-21.83 53.109-4.324 76.134-9.957-.432 7.072-.845 14.094 5.076 14.936zM2161.4 981.84c1.728-46.962 86.836-36.894 126.9-29.872 14.03 48.928-91.49 13.864-126.9 29.872zM2278.2 1439.8c-28.278-7.983-14.914-49.507-15.238-69.686-1.542-95.261-.01-216.81-15.229-298.68-92.413-12.57-198.92 44.418-258.87 0 86.924-4.213 277.14-61.515 299.48 29.865-6.687 109.59 13.452 245.49-10.143 338.5zM2278.2 2022.2c-23.742-10.519-19.195-50.996-20.305-74.665-3.81-81.371-4.074-176.1-10.162-253.88-11.998-18.101-24.87-35.336-40.6-49.778-72.383-8-149.51 19.192-197.96-9.958 90.793-4.4 245.71-28.587 274.11 44.809-9.897 116.03 22.249 243.5-5.076 343.47zM2268 2639.5c-29.917-122.06 39.628-360.73-45.686-418.14-74.592-6.502-175.77 13.081-233.5-9.958 85.785-12.153 271.96-38.179 294.4 44.801-3.642 97.61 5.646 195.75 5.076 298.69-.167 31.472 10.182 73.132-20.295 84.605z"/><path d="M2257.9 513.91v19.907c-20.216 3.234-31.056-2.723-30.466-19.907h30.466z" fill="#fff"/><path d="M2252.8 1514.5c-33.344 2.834-16.152-43.89-20.305-69.686 29.23 1.217 18.577 41.498 20.305 69.686zM2247.7 2027.2c-1.993 17.949 1.885 41.669-15.218 44.818-20.58 1.932-5.577-31.03-10.153-44.818h25.371zM2242.6 1350.2v89.601c-37.556 3.643-68.593.902-76.134-24.893-36.83-2.936-58.922 8.605-91.372 9.957V1350.2h167.5zM2232.5 2007.3c-59.736-2.179-113 1.992-167.51 4.97-3.652-63.312 8.376-111.25 5.067-174.24-3.565-18.417 21.698-8.579 25.381-19.898-18.252-23.336-22.17-76.733 0-99.55-17.604 4.29-28.16 15.506-40.6 24.886-4.301-85.695 174.6-81.968 172.58 14.928 5.213 16.724-15.779 7.762-25.382 9.958 35.367 54.937 27.973 151.78 30.457 238.95zM2191.9 284.92v24.894c-23.79-3.226-60.787 6.503-76.133-4.979v-9.957c6.49-21.84 53.109-4.324 76.133-9.958z"/><g fill="#fff"><path d="M2186.8 708.05c-28.023-2.587-47.856 2.851-71.057 4.979v-149.34c22.082.085 45.666 1.643 60.905-4.979 6.235 46.98 6.608 99.73 10.152 149.34zM2151.3 518.88c2.327 15.558-10.84 15.924-25.381 14.936.824-5.787-1.12-8.86-5.077-9.949.639-10.996 21.532-2.12 30.458-4.987z"/></g><path d="M2110.7 364.57c-19.834 8.817-84.598 16.537-121.82 24.886 3.682-15.226-8.758-14.639-5.076-29.873 39.716 4.196 81.357 6.502 126.9 4.987zM2004.1 329.72c-3.967-40.392 38.116-35.634 71.067-39.822 32.489 43.184-42.152 28.349-71.067 39.822zM2075.1 2032.2v14.945c-44.704-10.672-43.477 23.72-86.296 14.928V2032.2h86.296zM2065 563.69c-26.432-2.698-37.635 9.558-60.915 9.958-3.583-16.4-8.16-31.83-10.152-49.78 24.36-.995 37.184-13.327 65.991-9.957-1.689 19.907 9.043 27.626 5.076 49.78zM2039.6 1803.2c-14.571 18.902-22.17 44.647-25.371 74.682-18.459-11.77-11.252-48.724-15.229-74.682h40.6zM1988.8 2390.6c-5.97 62.188 14.355 150.14-15.229 189.17-4.959-56.553-17.026-132.62-5.076-189.17h20.305zM1958.4 852.41c-23.202 5.464-37.007 20.119-55.839 29.872-71.519-6.774-152.73 29.013-203.04 9.95 63.212-29.278 168.2-17.576 233.5-44.793V603.51c-12.018-11.447-45.568-1.779-65.991-4.97v-44.81c22.377-1.284 39.275-7.957 65.991-4.97 3.957-63.626-1.718-117.79-15.228-164.28 66.678-1.046 53.717 67.056 50.762 129.43-5.047 106.29-3.486 244.9-10.152 338.5zm-55.839-278.76c2.788 8.74 40.963 10.783 30.457-9.958-2.789-8.74-40.963-10.783-30.457 9.958zM1963.5 329.72c-31.674-2.842-49.593 7.779-76.143 9.958 2.082-12-9.278-10.817-5.076-24.885 26.608 1.123 83.517-31.234 81.22 14.928zM1953.3 1449.8c-28.278-8.588-14.885-48.75-15.229-69.686-1.423-87.405-7.079-183.94-5.076-273.8h-208.12c.108 38.715 27.325 101.74 0 134.4-25.882-7.303 2.69-37.976-5.086-59.729-11.812-23.26-19.186-50.877-15.219-89.61 84.617-3.294 162.93-12.774 253.79-9.95-10.015 124.44 22.18 260.18-5.066 368.37zM1953.3 2022.2c-29.722 20.63-96.242 5.167-142.12 9.958-7.55 7.549-8.179 21.856-10.152 34.843-39.815-7.048-85.442 21.413-96.439-14.928 13.678-11.472 48.955-1.762 71.057-4.97 15.671-61.873-4.527-131.62 0-199.13-2.573-19.1 30.486-3.277 30.457-19.898 5.724-23.873-19.362-17.541-25.381-29.873-1.394-39.532 23.477-53.311 40.6-74.664-47.129-10.468-50.674 45.294-81.21 34.843-4.006-100.44 188.94-71.363 177.66 29.872-13.776 3.072-40.276-6.332-45.686 4.987v14.928c-4.066 18.92 24.006 6.333 35.533 9.958 3.368 56.434-6.745 126.08 5.077 174.22h10.152c8.11-81.72 38.037-289.48-25.382-328.55-70.341-14-162.05 43.354-192.89-9.95 71.028-9.259 207.87-29.523 248.72 19.908-6.51 119.32 15.474 236.86 0 348.45zM1953.3 2639.5h-187.81c-25.637-3.821 15.994-13.762 10.152-29.856-5.145-128.55-21.581-269.94 60.915-323.58-59.678-.416-98.274 46.282-106.59 79.635-31.861-4.085 2.259-38.826 0-59.728 41.16-26.001 71.303-62.818 147.21-54.758 32.342 24.698 25.675 87.652 25.371 144.35h20.305c27.207-40.622-4.251-108.16 5.077-164.27-65.471-14.392-141.05 4.357-208.12 4.97 9.494 43.252 4.536 73.968-25.371 89.61-10.997-30.715-1.238-81.746-10.152-114.5 86.404-3.209 172.19-7.013 263.94-4.988-3.427 149.39 8.63 283.6 5.066 433.1zM1938.1 1524.4c-37.625 11.498-29.731-47.448-10.162-49.78 9.14 10.962 4.447 35.473 10.162 49.78zM1938.1 2101.9h-30.458v-44.8h25.381c-3.986 20.494 7.786 25.532 5.076 44.8z"/><path d="M1933 563.69c10.506 20.741-27.669 18.698-30.457 9.958-10.506-20.741 27.668-18.698 30.457-9.958z" fill="#fff"/><path d="M1922.8 1370.1c13.756 48.341-24.724 45.448-20.305 84.622-39.766-2.493-71.735 2.655-106.59 4.979-6.745-37.95-.854-55.056 15.229-79.635 30.448-9.975 69.673-11.32 111.67-9.966zM1917.8 1190.9c-61.554-3.429-110.16 12.341-121.82 69.695-20.903-7.702-23.869-32.996-40.599-44.8 14.079-62.052 125.78-80.588 162.42-24.895zM1882.2 384.48c-22.642 50.809-109.89 38.264-162.43 59.737v-29.864c56.486-7.66 102.02-26.068 162.43-29.873zM1872.1 912.14v39.822c-22.799-2.451-38.038 2.528-55.839 4.979v-39.822c17.811-2.46 33.04-7.422 55.839-4.98zM1856.9 349.63c-31.675-2.851-49.594 7.779-76.144 9.95 1.434-8.035-4.8-8.571-5.076-14.937 10.997-22.4 44.596-22.639 76.134-24.894-3.683 15.234 8.768 14.655 5.086 29.881zM1851.8 593.55c-6.118 18.885-43.182 7.438-60.915 14.936v-44.801c15.995.46 38.293-18.485 50.763-4.979 7.147 21.932-16.692 13.481-30.448 14.936-4.87 24.681 32.077 8.358 40.6 19.907zM1775.6 1280.5c-21.915 24.971-30.88 62.648-35.534 104.55-42.004-.298-10.584-72.588-20.305-104.55 15.326-6.706 40.511-6.706 55.838 0zM1765.5 613.47c-26.422-2.698-37.625 9.558-60.905 9.958-3.583-16.4-8.16-31.838-10.152-49.78 24.36-.995 37.183-13.327 65.991-9.957-1.698 19.907 9.033 27.626 5.067 49.779zM1658.9 374.53c1.433-8.043-4.8-8.57-5.076-14.936 10.702-21.022 40.227-23.6 71.067-24.886 31.803 41.788-37.9 28.613-65.991 39.822zM1694.4 2525c-8.307-39.958-10.3-86.137-10.152-134.39h30.447c7.305 56.665 5.813 100.56-20.294 134.39zM1709.7 1778.3c-37.851-1.048-13.343-63.252-20.305-94.58 36.319 11.021 21.788 55.898 20.305 94.58zM1714.7 1813.2c-8.945 42.655 4.83 107.62-20.295 134.41-37.576-18.783 1.65-82.111-10.152-124.45 14.856 1.294 15.592-11.252 30.448-9.958zM1694.4 424.31c-42.034 121.4 15.051 339.98-35.534 452.99h-25.372c-5.016-33.132 4.811-51.695 20.295-64.716v-164.27c-3.78-11.234-28.474-1.949-40.61-4.987-3.26 52.979 8.768 90.972 5.086 144.37-44.91-2.57-77.832 6.63-116.75 9.958 3.171-39.618-8.817-64.36-5.076-104.55 12.342-6.145 32.942-4.196 35.534-19.907 6.42-19.583-11.97-14.817-25.381-14.936 3.593-18.46-8.67-21.362-5.077-39.83 24.36-1.005 37.173-13.32 65.991-9.95 4.89 23.047-21.003 15.907-30.458 24.894 2.19 11.132 25.018 2.017 35.534 4.98-3.535 25.037 8.61 34.697 5.076 59.744h-30.457v69.678c8.69 11.396 38.744 1.839 55.838 4.988-7.344-62.494-15.818-123.88-20.305-189.17h71.058c11.782-28.264 1.738-77.942 5.077-114.5-4.674-8.69-15.867-10.988-30.457-9.95 7.442-36.58 34.179-23.344 65.99-34.851zm-81.22 194.13c7.285 8.417 44.321 3.932 45.686-9.95-14.05 4.469-47.64-10.237-45.686 9.95zM1669 1459.7c-49.054 1.668-72.481 28.477-126.9 24.894-4.28-24.018-6.951-49.601-10.152-74.665 36.025-2.833 70.478-7.225 111.67-4.978-7.62-37.33.608-90.205-25.372-109.51 2.631-17.336 30.497-9.915 25.372-34.86-10.997-49.941-69.782-39.694-111.67-24.886-3.27 20.034 6.598 52.936-5.076 64.716h-15.229c-21.807-8.468 2.74-62.418-35.523-54.758 5.96-75.414 132.53-70.214 167.51-24.886 12.744-36.792-2.543-59.771-20.306-79.652-63.497-2.528-110.09 11.515-167.5 14.937-6.343 38.596 12.931 102.3-10.152 124.45-33.953-18.137-6.225-96.776-15.229-139.38 65.136.552 137.12-40.673 192.89-29.864 68.23 13.217 48.592 86.35 50.762 169.25 4.468 16-16.73 6.834-15.228 19.915 2.73 53.71 7.413 105.54 10.142 159.27z"/><path d="M1658.9 608.49c-1.365 13.881-38.41 18.374-45.686 9.95-1.963-20.188 31.626-5.482 45.686-9.95z" fill="#fff"/><path d="M1628.4 2654.4h-137.05c56.054-47.873-28.906-200.8 35.534-238.95-5.794-19.218-21.876-28.324-25.382-49.787 11.753-16.673 24.105-32.767 35.534-49.788-45.214-12.698-64.302 26.426-81.21 24.903-10.457-44.247 49.918-57.899 86.286-49.788 55.996 12.502 64.773 86.257 60.915 154.32h25.371c8.454-54.792-8.533-127.66-10.153-189.17-64.902 11.021-178.05-25.268-203.04 24.903-8.11-13.634-10.448-32.894-10.142-54.776h218.26c15.415 123.99 41.72 316.2 5.077 428.12zM1643.7 2042.1h-121.82c8.808-72.861-26.824-164.63 15.228-209.08 5.214-16.724-15.788-7.745-25.381-9.957v-59.747c-37.929-.698-26.501 47.04-60.904 49.788-16.368-54.606 107.69-132.22 157.35-54.758-3.015-23.584-4.154-49.02-15.229-64.716h-152.28c-14.551 27.21 2.543 85.456-20.295 104.54-33-7.463-6.902-72.886-15.219-104.54 31.636-27.744 220.21-47.94 238.56 4.971 29.004 83.67-21.503 245.9-.02 343.49zM1633.5 897.21c3.682 15.226-8.768 14.639-5.086 29.864-68.062-5.328-133.8 18.085-187.81 9.957-8.474-30.638 25.273-16.502 40.62-19.915 41.16-9.158 85.579-18.145 137.05-19.907h15.228zM1628.4 2106.9c-34.797 7.583-32.392-21.328-40.61-39.83h35.533c-3.604 18.469 8.67 21.379 5.077 39.83zM1623.4 394.43c-31.665-2.843-49.584 7.779-76.133 9.958 1.434-8.043-4.791-8.571-5.076-14.928 10.996-22.4 44.596-22.64 76.143-24.886-3.702 15.209 8.748 14.63 5.066 29.856zM1598 449.2v19.898c-49.427-9.013-105.59 33.66-131.97 0 36.604-13.872 82.29-18.851 131.97-19.898zM1526.9 409.37c-31.666-2.851-49.594 7.787-76.134 9.949 1.433-8.034-4.802-8.57-5.076-14.928 10.996-22.41 44.596-22.638 76.133-24.894-3.682 15.217 8.768 14.638 5.077 29.873zM1516.8 2077c-20.393 11.524-62.535 1.728-91.363 4.987-35.887-42.818-19.224-163.65-15.238-228.99h20.314c27.335 52.18-4.232 131.57 5.076 199.12 25.764 9.575 68.033 2.979 81.21 24.886zM1496.5 658.27v24.894h-65.991v-49.779c17.595-2.153 52.402-13.813 60.905 4.979-.687 14.255-34.836-4.307-35.524 9.957-3.103 19.618 27.865 5.847 40.61 9.95zM1496.5 1325.3c-6.225 25.422-35.229 28.511-45.686 49.788-6.922 42.996 1.718 101.24-20.305 129.42-6.49-51.209-15.081-147.51 10.143-184.18 18.655 1.609 44.94-4.256 55.848 4.97zM1430.5 2410.5c.03 61.422 6.127 128.79-20.315 164.27-8.69-41.754-8.13-117.44 0-159.3 9.112.638 10.712-6.085 20.315-4.97zM1420.3 439.23c-31.665-2.843-49.594 7.779-76.134 9.966 1.433-8.043-4.8-8.57-5.086-14.945 11.645-21.779 42.81-24.392 76.143-24.886-3.682 15.226 8.758 14.638 5.077 29.864zM1354.4 2052.1c-33.206-2.689-57.783 3.073-86.296 4.988-6.205-83.508 12.774-191.74-10.152-258.86-41.297-8.979-5.665 57.499-50.753 44.8-16.426-17.2 15.69-70.093 35.534-84.621 34.836-.979 60.797 6.749 86.296 14.945 6.775-10.221-15.808-34.094-20.305-49.788h-137.05c.295 56.716-1.63 111.24-10.153 159.3-27.305-8.426-15.219-52.827-15.219-84.623v-94.58c63.369-1.243 134.22-20.562 197.96-4.988 22.23 99.312 4.39 237.93 10.133 353.43zM1329 2072c-3.22 16.757 6.54 46.23-5.077 54.758-22.926-2.408-12.48-37.549-20.304-54.758H1329zM1308.7 996.77v44.792h-45.686v-39.821c16.721-.213 25.283-8.4 45.686-4.97zM1298.5 703.07c-21.611-2.945-33.569 3.583-50.762 4.979v-39.83c16.711-.213 25.273-8.4 45.686-4.97-1.12 16.026 8.974 21.064 5.076 39.822zM1288.4 1534.4c-14.679 20.528-55.514 41.694-91.362 24.894v-9.957c14.325-20.8 57.998-12.81 91.362-14.936zM1263 1385.1c-11.173 8.937-36.172 4.34-50.752 9.958-3.761 39.439 10.987 97.04-15.229 114.49-11.802-36.546-1.718-94.555-5.076-139.39 26.883-8.74 62.29-7.736 71.057 14.945zM1242.7 2077c-28.298 10.408-55.514 21.89-86.296 29.872 3.682-15.226-8.748-14.646-5.076-29.872h91.372zM1227.4 683.15v39.822c-19.127-3.83-24.272 6.077-40.61 4.979 2.72-19.26-9.062-24.298-5.076-44.8h45.686z"/><path d="M1222.4 1872.9c4.074 17.268-7.57 19.132-5.077 34.843h-25.38V1872.9h30.457zM1171.6 2052.1h-15.228c-20.109-30.434-8.08-113.57 5.076-144.37 16.123 32.367 18.528 104.57 10.152 144.37zM1166.5 2425.4c-1.758 44.75 8.994 101.75-20.305 119.48-11.792-29.941-1.738-81.286-5.086-119.48h25.39zM1125.9 2062.1c-29.338-2.23-52.01 2.094-76.134 4.97-7.796-76.98.187-169.43-20.305-233.96-36.309-2.425-23.918 42.92-35.534 64.716-36.29-9.855-21.62-91.559 0-104.52 20.383-4.902 44.537-6.102 71.057-4.987-3.79-19.514-19.804-27.046-25.381-44.8-32.785-2.69-76.949 5.77-101.52-4.988 44.724-26.86 109.16-5.966 172.58-9.958 4.772 111.48 10.849 221.65 15.229 333.53zM1115.8 981.84c3.682 15.235-8.768 14.647-5.086 29.865-56.104 6.366-95.535 29.098-147.2 39.822 12.725-60.529 95.732-52.137 152.29-69.686zM1100.6 767.77v119.48c-14.865-1.302-15.602 11.251-30.457 9.958v-109.52c-55.593-3.081-2.946 99.993-35.533 119.46-19.343-29.15-11.793-84.673-15.229-129.43 27.758-2.647 48.769-11.906 81.219-9.958zM1090.4 2086.9v54.758h-25.381c2.297-23.822-3.672-39.54-15.229-49.788 3.78-11.208 28.464-1.931 40.61-4.97zM1049.8 717.99v34.852h-30.457v-29.864c11.959.11 14.944-8.579 30.457-4.987zM1034.6 2091.9c-20.787 14.477-41.356 29.141-81.21 24.903-3.682-15.226 8.758-14.647 5.076-29.873 29.328-2.213 52 2.094 76.134 4.97zM1029.5 1385.1v29.856c-16.358-2.212-27.502-9.523-45.686-9.949-11.753 21.652-1.757 64.648-5.076 94.58-15.514-3.6-18.499 5.09-30.457 4.98 2.494-42.358 8.385-81.38 10.152-124.44 27.678-2.256 41.709 8.868 71.067 4.978zM999.03 767.77c-15.514-3.592-18.499 5.098-30.458 4.987v-29.873c22.583-3.897 32.451 4.69 30.458 24.886zM973.66 1350.2h-10.152c-18.822-1.651-11.164-55.15-5.077-64.708h10.152c18.813 1.651 11.164 55.158 5.077 64.708zM958.42 2450.3v164.26c-16.476-2.876-23.614 3.387-35.524 4.97-3.505-61.507 8.562-107.73 5.066-169.24h30.458zM927.96 1051.5c-28.189-13.804-15.228-58.154-15.228-84.622 0-103.93 8.591-216.81 5.076-323.57-58.754-11.055-87.179 54.792-126.9 29.873 1.01-22.409 50.83-43.83 91.362-49.78 18.625-2.732 41.022 2.06 60.914 0-9.77 140.13 38.214 324.24-15.229 428.1zM943.2 2072c-27.973-2.996-13.618-44.681-15.228-69.694-2.248-35.107-17.222-81.304 5.076-99.55 28.17 6.12 13.785 54.886 15.229 84.622 1.482 30.665 18.027 69.746-5.077 84.623zM948.27 1862.9c-14.345-4.102-13.147 7.013-25.371 4.987-3.515-34.97 8.581-54.639 5.066-89.61 21.581 13.677 17.026 52.988 20.305 84.622z"/><path d="M902.58 797.66h-20.305c1.728-15.439-11.753-23.788 0-34.852 21.022-2.35 13.49 23.277 20.305 34.852zM892.44 1046.6c-13.255 41.754-72.402 38.52-106.59 59.728 2.485-15.711-9.15-17.575-5.086-34.843 37.978-7.566 70.301-20.664 111.68-24.885z"/><path d="M882.28 1300.4c-31.243 7.532-74.768 3.004-91.362 24.894-.216-16.391-8.572-24.775-5.077-44.809 26.55-2.17 44.47-12.8 76.134-9.95 8.366 8.393 11.026 22.367 20.305 29.865z" fill="#fff"/><path d="M877.21 568.66c4.064 17.277-7.56 19.141-5.077 34.852-71.303-6.868-98.343 29.677-147.21 44.809-11.753-11.073 1.728-19.421 0-34.852 39.902 10.928 32.932-24.128 50.752-34.851 25.175-6.426 24.94 12.051 45.686 9.957 11.007.834 2.288-17.65 5.077-24.886 21.62-2.944 33.58 3.584 50.772 4.97zM872.13 1096.3v39.822h-45.686v-34.851c16.711-.213 25.273-8.4 45.686-4.97zM861.98 2106.9c-6.068 18.937 14.492 63.984-15.229 59.746-20.02 3.039-5.98-27.328-10.152-39.83-45.067-11.022-36.152 30.919-81.21 19.916 3.594-18.468-8.67-21.362-5.086-39.831h111.68zM856.9 812.58c-15.513-3.6-18.498 5.08-30.457 4.97-3.309-23.158 1.787-38.077 25.371-34.843-.108 11.736 8.758 14.664 5.086 29.873zM841.67 1594.1c3.682 15.217-8.759 14.646-5.077 29.864-25.41-3.353-39.284 4.613-60.915 4.979V1594.1h65.991zM806.14 1937.6c-3.78 11.217-28.464 1.949-40.6 4.97-7.982 48.605 19.176 131.65-20.305 149.34-8.179-55.02-10.094-116.19-10.152-179.19 22.082-.085 45.666-1.643 60.915 4.97.687 9.277 3.329 16.638 10.143 19.915zM801.06 807.6v24.886c-21.002 4.009-26.049-7.635-25.382-24.886h25.382zM745.23 2644.5c-5.214-61.55-15.052-170.72 5.066-224.02 13.992 24.153 13.294 73.422 15.238 114.51 2.004 42.196 10.467 94.58-20.305 109.51zM719.85 817.55v29.873c-21.788-4.784-30.242 3.523-25.372 24.885-13.412.127-31.812-4.647-25.381 14.928h-50.752c-2.082-11.992 9.268-10.817 5.066-24.886h30.457c4.193-14.068-7.157-12.893-5.076-24.885 18.283 1.345 35.112 1.242 30.458-19.915h40.6zM699.55 628.39c-3.682 11.336-4.526 25.43-10.152 34.852-47.257-13.166-36.869 30.213-71.057 29.864-14.158-20.221-15.523-31.081 0-49.779 42.848 10.511 44.862-19.056 81.21-14.936zM684.32 1624v29.873c-26.432-2.681-37.625 9.557-60.915 9.95 3.682-15.227-8.748-14.64-5.066-29.866 24.36-.995 37.164-13.319 65.98-9.957z"/><g fill="#fff"><path d="M669.09 1798.2v34.843c-39.696 2.562-43.584 40.231-71.067 54.776-22.416-7.898-4.3-55.516-10.152-79.652 24.89-5.48 58.097-2.783 81.219-9.967zM669.09 2320.9c-.02 44.784-26.284 63.832-40.61 94.58-3.368 92.903 8.68 170.7 5.077 263.83-134.36 2.91-281.69 13.115-406.08 9.957-9.623-108.38-12.97-222.9-20.305-333.52h35.839v293.69c13.48-.033 28.984 1.899 35.533-4.97 11.83-84.638 1.688-190.81 5.076-283.75h45.676v283.75c7.04 11.354 35.337 1.864 50.762 4.97-3.486-107.97 8.572-200.67 5.086-308.63 26.619 3.753 70.31-9.209 81.21 9.957-33.511 6.98-37.527 42.835-45.686 74.665 5.4 11.302 31.91 1.898 45.686 4.987v209.06c7.04 11.371 35.327 1.864 50.752 4.988-2.73-106.84-7.423-211.76-10.152-318.59 16.142-.766 22.328-11.285 40.61-9.974 3.377 102.9-6.766 219.03 5.075 313.64 27.218-11.584 15.23-71.593 15.23-109.52v-119.46c15.376-16.443 40.934-22.902 50.752-44.8-26.147-7.396-21.827 15.09-45.676 9.94v-44.8c25.39.016 50.771.016 76.142.016zm-218.27 139.4c-1.12-3.89-4.251-5.804-10.152-4.987 3.368 54.792-6.736 122.76 5.076 169.25 22.22-28.443 23.035-129.46 5.077-164.27z"/></g><path d="M648.79 1469.7c-39.412 14.451-8.935 97.44-30.458 129.43-25.479-1.149-16.298-47.711-15.229-74.673 1.13-28.503-2.062-62.07 15.229-69.686 19.637-4.332 18.067 12.162 30.458 14.928zM592.96 713.02c-10.978 4.17-17.31 12.894-35.534 9.957 3.682-15.234-8.768-14.647-5.086-29.873 15.239-14.536 47.002-12.749 40.62 19.915z"/><g fill="#fff"><path d="M460.98 927.08c1.856-39.992 2.317-78.606-25.371-89.601 34.552-17.558 59.334-44.698 116.74-39.822-3.329 31.575 6.696 76.256-5.076 99.559-27.659 11.03-55.299 22.094-86.296 29.864zM552.34 1151.1c-30.594.144-62.495 1.558-86.286-4.97 1.13-64.163-6.451-119.8-10.153-179.22 17.674-32.443 64.125-36.681 86.296-64.716 23.516 63.226 3.506 169.13 10.143 248.91z"/></g><path d="M552.34 1205.8c-19.892 12.009-38.106 25.685-60.905 34.843-5.106-6.604-4.802-18.51-15.229-19.898 18.391-11.464 54.906-36.792 76.134-14.945z"/><path d="M511.74 1315.3v19.924h-40.619c10.624-9.507 24.242-16.06 40.619-19.924z" fill="#fff"/><path d="M481.28 1200.9c-30.182 13.685-56.545 51.583-96.439 39.821 26.304-17.472 50.802-57.192 96.439-39.821zM445.75 2624.6c-11.812-46.495-1.708-114.46-5.076-169.25 5.901-.817 9.023 1.098 10.152 4.988 17.958 34.809 17.143 135.82-5.077 164.27zM455.9 1409.9c-5.322 114.26 11.959 250.67-40.6 318.58-34.601-4.06-50.468 10.256-76.143 14.945 7.766-40.511 66.482-31.047 81.21-64.717-34.611-9.072-13.069-51.396-15.219-84.63-4.035-17.541-23.859 15.072-25.381 0-1.364-50.562 18.754-112.16-15.218-139.39 26.618-18.681 50.487-40.086 91.352-44.792zM252.87 2236.3c-1.12-16.025 8.984-21.064 5.077-39.83 20.707-1.26 25.067-18.554 50.762-14.928 11.694 31.583-21.512 52.724-55.838 54.758zM308.7 1738.5c4.075 17.269-7.56 19.15-5.076 34.861-15.78-4.435-23.643-16.639-40.6-19.932 14.04-6.128 27.169-13.166 45.677-14.929zM242.71 1753.4c8.287 6.868-3.554 36.052-5.067 49.788-12.096-8.043-22.376-17.89-35.533-24.885 13.176-8.639 41.66-2.29 40.6-24.903zM222.4 2206.4c-1.826 19.796-5.459 37.796-20.305 44.817-28.464-13.37-7.167-44.868 20.305-44.817z"/><g fill="#fff"><path d="M166.57 2136.7c-13.422-49.898-11.33-115-15.229-174.22 12.705-4.153 19.932-13.651 35.534-14.945-9.495 64.852 31.115 159.34-20.305 189.17zM191.95 2679.3h-35.524c6.284-90.81-15.67-180.4 0-263.83 36.83 20 22.956 83.134 25.371 129.44 2.465 47.013 8.1 95.431 10.152 134.39z"/></g><path d="M197.02 1409.9c213.59-118.26 469.79-190.75 736.01-258.86 359.67-92.001 715.41-169.46 1162.4-174.22-101.4 16.937-182.34 34.741-294.4 39.822-226.06 10.264-444.92 79.737-654.79 124.45-215.22 45.864-420.13 101.06-614.19 164.28 39.805 1.506 104.4-4.375 157.35-19.907 16.436-4.825 31.056-19.702 45.686-24.902 58.646-20.8 112.35-3.915 182.73-14.928 62.358-9.762 136.24-48.579 213.18-29.873 41.425 125.8-9.495 266.51-10.152 398.24 74.877-9.524 146.19-22.562 223.34-29.864v-69.695c-12.008-11.446-45.558-1.77-65.99-4.97 2.867-22.732-9.004-31.005-5.076-54.766 34.866-2.307 66.826-7.473 106.59-4.98-12.862-62.29 11.753-181.24-45.686-189.17-36.3-5.012-71.911 44.232-55.838 99.56-105.11-30.554-42.74-172.44 71.057-119.47 11.576-6.894 1.895-34.64 5.086-49.78-60.512-1.25-102.61 15.54-157.35 19.924.04 48.163 4.664 100.8-15.228 129.42-8.307-43.277-10.29-92.776-10.152-144.35 74.513-11.55 138.28-33.651 218.26-39.83-3.584 109.71 8.463 204.1 5.076 313.61 5.213 16.732-15.778 7.754-25.381 9.957 4.26 32.332 2.945 70.121 10.152 99.56 73.384-6.026 142.54-16.188 218.27-19.916 14.502-9.608-20.924-59.788 5.076-64.707 33.953-5.106 17.742 38.996 25.37 59.728 346.68-18.766 726.46-20.494 1091.3-49.78 194.46-15.608 421.84 0 639.56 0 232.02 0 470.12-3.932 670.02 4.979 98.973 4.4 197.26-22.272 289.34 24.886-56.721.74-114.66 14.527-172.59 9.965-26.018-2.059-52.126-17.37-71.046-19.924-140.07-18.903-332.47 0-517.74 0-530.51 0-990.09 22.655-1487.3 44.81-335.57 14.943-645.84 64.92-949.2 99.566-77.597 8.86-149.41 10.026-223.34 24.885-67.906 13.651-135.74 32.665-203.03 44.8-135.84 24.52-270.83 38.333-385.78 84.623-30.733 12.383-80.867 22.307-86.297 64.724 160.52-83.176 415.35-117.04 659.87-134.43 43.948 83.942 5.578 221.08 15.23 333.53h-65.992c-1.325-70.742-25.342-156.17 15.23-199.11-5.843-17.523-28.789-18.238-35.535-34.86-11.213.613-2.15 21.107-5.076 29.873-15.778-4.433-23.642-16.638-40.599-19.915 6.48-35.124 37.477-46.213 71.058-54.758-.02-48.375-54.091-22.757-86.296-19.915-11.95 5.669 18.164 58.894-5.066 59.73-36.81 9.557 6.342-59.313-30.458-49.772-32.42 13.583-11.4 57.847-10.152 84.623 3.328 71.762-.462 156.02 5.076 224 4.811 17.984-19.99 6.945-30.457 9.957v49.79c-21.297-12.299-66.01-1.643-81.21-19.916-6.54-32.962 52.028-2.076 60.914-19.916 9.495-22.587-20.168-6.783-15.219-24.885-10.76-39.243 23.192-122.33-20.315-129.44-32.057 23.736 29.662 118.28-20.295 129.44-23.437-46.708-3.574-135.89-10.152-199.12 2.288-13.864-27.659 3.906-25.382-9.957v-79.652c-62.78-5.583-32.647 121.99-30.457 169.25 2.347 50.614-1.816 98.904 0 139.38-23.3 4.604-24.527-12.451-45.676-9.94 9.387 27.378 56.938 43.616 35.534 84.604-38.813 3.226-14.54-55.422-55.848-49.77 17.703-80.75 4.82-168.05 5.086-258.85-53.08 34.221 9.436 181.82-35.534 224-8.551-81.415-13.609-202.5 15.23-263.85-16.084-17.703-46.355-6.188-65.982 0 49.093 90.723-4.133 249.12 10.143 353.44-32.382-13.832-30.242-15.244-55.839 4.97-19.283-35.005 11.763-34.06 35.534-39.814 1.443-21.327-18.165-22.008-35.534-24.902 41.788-56.92-13.667-209.19 35.534-258.85-16.947-8.145-71.214-10.238-81.21 4.987-9.24 27.294 21.15 15.762 20.295 34.826-11.91 79.592 21.297 203.42-40.61 233.98-26.608-61.856 2.858-178.69-15.219-248.91-59.54 14.196-37.399 107.52-40.61 179.21-1.365 30.502-9.19 59.473-5.076 84.622-28.778 2.672-39.353 5.915-60.905-4.97-3.505 44.911 8.581 74.553 5.076 119.46 241.16-36.639 482.8-89.244 741.08-104.54 119.5-7.065 241.9-19.397 365.47-24.887 483.64-21.54 989.78-31.413 1467-69.694 264.45-21.226 547.81 7.293 832.45-4.97 280.6-12.102 561.69-8.196 807.06-4.988-10.467-12.945-32.814-14.28-45.677-24.885 3.663-60.01-8.365-104.64-5.085-164.27 52.274.17 22.877 80.435 30.477 124.44 13.638 30 36.76 22.775 45.676 49.788 10.908 33.081-31.567 70.597 10.143 89.593-72.491 54.707-40.364 187.27 5.086 243.92 20.236-43.073-16.555-94.333-15.228-119.47 6.235-2.178 10.417-6.365 10.143-14.928 37.3-13.949 83.82 3.294 101.52 24.885 2.337 108.88 9.299 213.24 10.143 323.58-29.053 37.864-104.44 30.307-172.57 29.856 11.332-27.047 58.489-18.97 96.438-19.916 36.279-127.49-64.911-184.59-91.363-278.76-12.498-44.51-23.141-166.21 20.286-179.19-8.768-23.319-20.845-40.043-5.067-64.725-1432.4-.978-2829.6 32.613-4086.1 204.09 69.536 31.064 138.12 2.34 208.12-4.97 71.096-7.43 144.45 1.676 218.26-4.987 211.64-19.081 430.04-51.082 644.65-54.758-3.416 139.42 8.64 263.66 5.076 403.21h-106.59c13.216-103.18-23.76-255.59 40.6-308.63-38.999-56.903-66.747 21.71-86.296 44.8-51.548-74.4 103.83-121.42 121.83-44.8v-69.686c-49.328-1.932-93.189 1.532-137.05 4.97-25.872 14.46-15.023 64.912-25.37 94.58-31.95-5.166-7.826-65.345-25.382-84.622h-25.37c-8.2 119.73-10.085 245.65-10.154 373.34h-71.067v-199.11c-3.043-12.945 2.043-17.915 15.23-14.945-21.396-24.434-36.467-86.035 20.304-99.55-49.004-28.442-81.818 10.46-101.51 39.814-10.329-46.724 46.668-65.78 91.362-74.665-24.468-8.927-83.655-9.106-101.52 4.988-10.418 26.298-2.886 70.162-15.229 94.58-18.999-21.191-11.37-68.503-15.228-104.54-16.476-2.894-23.614 3.387-35.524 4.97-14.325 108.74-8.856 236.91-15.228 353.44h-60.905c10.89-71.346-3.8-155.6 10.142-219.03 5.931-26.928 32.687-44.894 15.23-69.694-7.747-15.643-38.922-8.281-60.915-9.941 8.964-28.86 57.4-30.29 81.22-29.873 3.681-41.771-58.137-19.32-91.363-24.903-17.723 19.133.58 73.584-25.38 84.639-28.819-7.677 11.222-53.346-10.153-69.711-44.35-4.026-23.859 75.43-25.38 109.52-3.584 79.908-12.717 176.16-15.22 248.91 537.3 20.23 1133.7 19.362 1680.1-4.987 193.74-8.63 401.47-1.43 598.97-9.94 376.91-16.257 750.92-33.159 1116.7-19.933-750.76 49.635-1526.9 30.97-2309.6 64.716-444.36 19.166-886.92-13.967-1319.8 14.945 408.98 24.715 819.49 50.75 1258.8 69.686 250.03 10.792 589.72-18.366 862.92 0-24.772-1.66.285 12.264 25.371 4.988-44.34 12.868-76.919-10.485-111.67 0-477.6 35.388-998.03 55.473-1497.4 19.915-233.31-16.622-490.46-15.591-705.56-44.8-65.147-8.86-131.66-35.771-197.96-34.843-46.806-70.094-1.914-192.04 15.228-273.79-10.525-17.966-44.027 9.243-50.762-4.987-7.265-50.265 41.523-45.567 25.382-104.54-5.538-17.601-24.92 17.6-30.457 0-7.54-37.252 27.226-33.031 30.457-59.746 4.811-35.44-9.73-70.478-5.086-104.52 2.396-17.583 16.78-29.141 20.305-44.817 9.927-44.213 13.304-115.75 5.076-154.31-4.035-18.937-28.778-37.056-30.457-59.746-1.453-19.728 15.317-36.018 20.305-59.73 9.809-46.612 1.993-132.42 5.077-199.12 1.59-34.28 9.15-64.162 5.075-84.63-6.009-30.196-31.056-41.89-20.294-69.694 7.718-19.992 30.595-25.396 55.828-34.843-4.094-17.55-30.977-12.757-30.448-34.843 11.35-78.486-8.846-187.89 30.448-238.95-25.136-25.115-23.29-76.716-25.37-124.45 7.883-20.996-28.18 1.09-20.306-19.907 49.221-120.58 150.26-209.19 243.65-293.71 94.21-85.26 213.78-141.09 324.86-209.07 65.991 10.408 96.742-36.196 152.28-19.907 26.628-.426 19.834-33.651 45.677-34.852 59.49 8.025 80.05 54.239 126.9 74.665 48.327-20.64 138.15-.579 157.36-49.78 105.71 15.728 127.54-50.81 116.74-149.34 180.73-73.967 389.25-101.61 604.04-134.4 464.54-70.912 984.13-120.09 1532.9-79.644 16.28 32.784-10.664 39.039-25.372 54.75 17.026 29.77 47.06 46.775 76.133 64.716 59.736 133.89 104.78 282.2 157.34 423.13 40.305 25.184 91.087 40.086 116.75 79.652 24.34 196.92 34.964 414.18 111.67 582.42h157.34c12.94-25.49 9.936-66.606 10.162-104.54 46.255-3.873 83.154 1.43 106.58 19.924 284.32 4.918 499.32 77.822 664.96 199.12 55.612 86.214 43.163 244.58 50.763 408.19 10.162 219.65 13.922 426.45 25.372 637.17-62.712 31.414-139.13 49.405-213.19 69.695-11.252 7.2-13.423 23.337-15.229 39.814-46.442-25.234-30.456-95.593-30.456-159.3v-189.17c-2.976-19.481 20.884-12.698 25.391-24.886 1.826-23.354-26.658-17.004-25.39-39.831-5.715-22.187 36.936 3.02 25.39-24.885-4.026-27.592-38.912-24.902-50.783-44.8-4.142-32.435-8.09-65.065-15.228-94.581h-106.58c-49.093-31.498-24.87-134.9-30.458-209.08-2.395-26.281 13.658 11.566 15.228-4.988 8.955-36.988-21.306-35.507-25.37-59.728-9.82-73.54 19.038-120.15 5.066-174.23-14.267-55.252-97.185-72.64-91.363-139.38-49.878-4.162-92.677-15.319-147.22-14.936-18.332 4.715-7.061-19.617-10.124-29.864h-76.154c1.57-18.136-.806-32.4-5.087-44.8h-50.762c-15.494 9.19 5.872 23.642 0 39.813-53.845-21.839-139.09-12.91-213.19-14.928-34.022-72.818-43.153-170.06-101.52-219.04 3.437-11.566 26.658-3.744 20.324-24.885-7.52-72.29-6.52-152.9-15.248-224.01-121.16-2.68-229.53 7.209-345.14 9.958 4.262-5.779 6.696-13.345 5.066-24.885 31.646-26.971 105.13-14.936 162.43-14.936h172.57c-8.935-80.836-31.37-148.42-116.73-154.32-34.57-120.81-117.82-229.5-152.29-353.44-6-21.583-1.248-48.145-10.144-69.686-19.46-47.09-97.38-57.456-81.208-124.45-63.822-32.775-207.42-19.915-324.88-19.915-629.66 0-1249.9 71.856-1746.1 199.12v99.559c37.635.4 75.603 1.132 106.59-4.98 21.473 18.06 36.064 15.329 65.991 19.916 7.217 25.337-25.568 11.438-40.61 14.928-8.66 160.37 18.872 361.18-50.762 448.02-59.353-.136-104.67 13.507-157.35 19.915 13.923-51.073 114.96-16.698 152.28-44.81 9.289-82.144 30.428-152.68 25.371-248.9-15.435-18.016-54.385 9.278-65.982-4.97-14.06-45.31 37.714-26.068 65.982-29.873 3.692-53.396-8.336-91.38-5.076-144.36-98-33.03-136.85 35.022-208.12 44.801v418.15c-20.413-3.43-28.974 4.775-45.685 4.979-.03-82.988-1.758-167.66 5.076-243.92-7.738-20.01-41.67 16.613-40.6-9.958-5.057-28.188 21.356-25.524 40.6-29.864v-114.5c-61.023-24.605-110.66 20.75-157.34 14.945-49.83-6.213-59.383-59.141-106.6-74.673-19 2.936-15.71 27.737-30.457 34.843-96.115-4.332-161.93 27.209-233.5 64.716-98.863 51.805-179.19 113.77-248.72 189.16 43.143 10.775 40.767-23.064 60.914-34.852 26.373-2.383 30.153 35.013 50.752 9.958 30.899-13.09-37.792-23.251-5.076-39.822-4.075-18.936 23.996-6.332 35.533-9.958 12.146-6.349-5.067-41.473 25.37-29.873 26.03 8.724-2.11 42.137 5.087 64.716 55.024-55.558 159.14-62.954 228.42-104.55-7.06 149.07 50.26 346.06-25.381 443.04-43.526 3.77-76.124 18.256-111.67 29.865-5.254-26.809 53.482-33.754 86.285-39.822 1.699-79.754-39.608-127.18-15.228-219.02 16.348 1.09 21.483-8.809 40.6-4.979 7.079-74.656-35.26-94.716-10.143-164.27-47.326 18.834-74.73 24.417-116.75 29.864-28.22 130.1 41.758 331.94-35.534 418.15-33.187 5.626-58.646 18.818-86.296 29.865-24.104-4.57-40.846-16.35-71.067-14.928 6.136-67.286-30.87-161.12 5.086-209.08 21.248.74 2.012 41.166 20.305 44.81 13.255-10.223 7.678-38.929 15.218-54.759-13.756-14.715-32.028-25.005-30.457-54.758-27.531 2.86-38.577 21.907-60.905 29.873-6.52 85.422 12.352 200.83 5.076 283.74-3.407 38.818-8.857 81.874-45.686 94.59-20.403-31.772 21.394-45.279 30.457-64.717-8.994-1.14-25.411 5.022-20.295-9.957 3.702-50.086-8.326-84.768-5.076-134.41 6.088-27.524-26.275-17.362-25.372-39.822 19.186-14.46 28.445-64.92 15.229-94.588-34.846 14.298-28.434 70.639-30.457 114.5-3.427 73.89 13.245 166.12-30.457 199.12-69.948-30.273-60.031-167.73-5.077-204.1-56.565-2.366-49.132 58.018-81.219 79.644 25.852 50.417 22.18 165.01-10.143 204.1 40.786-19.728 79.63-41.371 116.74-64.707 1.286 9.719-29.19 30.962-45.676 39.822 15.464 26.562-7.423 49.022-30.418 74.741zm4548 438.06v64.724c14.884-1.293 15.611 11.251 30.477 9.94.706-35.54 4.958-74.554-30.477-74.665zm-45.656-343.47c1.845 31.694-9.034 50.886-5.087 84.614 23.359.323 32.942 14.153 50.744 19.924 5.673-55.337-13.983-85.857-45.656-104.54zm-20.315 378.32v109.51c0 32.282-14.08 85.354 20.305 89.61-1.533-57.975 39.048-176.64-20.305-199.12zm-76.153-428.11c-.6 33.779 8.797 57.754 5.086 94.58 18.204 7.038 28.808 21.532 45.676 29.872 2.73-60.75 8.866-124.83-50.762-124.45zm-20.285 353.44c3.76 90.894 5.448 183.82 10.142 273.79 16.642 3.575 43.702 44.469 50.761 24.885-23.623-96.316 35.632-273.89-60.903-298.68zm-116.75-184.19c11.792 36.537 1.728 94.563 5.066 139.37 27.845-.748 54.69-.519 76.153 4.988v-139.38c-29.574 3.974-58.93-18.348-81.22-4.979zm76.133 199.12c-29.338 3.906-43.398-7.217-71.067-4.97v214.04h71.067c-.628-67.303.884-157.99 0-209.07zm-86.275-423.12c6.804 31.473 6.98 69.456 10.143 104.54 23.838 6.493 33.255 27.123 55.828 34.843v-114.5c-20.639-9.626-47.179-13.482-65.971-24.885zm-101.52-39.83c.363 21.201 8.474 34.818 5.066 59.745 21.15 2.494 29.632 17.413 50.763 19.908 10.378-54.963-12.254-77.593-55.83-79.652zm-4208 433.1c-3.053-3.021 35.131-5.072 30.457 9.94 10.575 33.61-40.305 6.946-25.381 44.802 202.91-84.742 471.99-147.74 730.94-194.13-13.206-2.92-30.87-60.963 0-59.737 11.655 10.136 1.846 41.336 5.086 59.737 69.27-10.052 135.52-23.082 203.04-34.843v-49.79c-52.922-17.914-68.269 51.424-106.59 14.937 29.456-20.894 81.848-19.302 65.991-84.622 100.55 10.885 63.055-99.21 65.991-174.23h-50.763c-11.094 17.183-13.206 41.209-15.228 54.767-37.449-8.835-51.9-41.04-40.61-84.623 23.378-12.042 58.793-21.302 91.371-9.958.108-11.736-8.748-14.664-5.076-29.881-56.172-16.332-112.38 8.834-167.52 9.958-10.81 92.282-13.658 192.38-20.295 288.73-22.209 4.774-33.373 20.375-65.99 14.937v-129.43h-40.61c-16.446 40.28-1.472 111.4-40.61 129.43-6.824-43.252-5.174-121.19 25.382-144.37 19.892-5.37 62.515 11.532 65.981-9.958 4.075-18.92-23.996-6.324-35.523-9.949-2.877-15.43 1.375-37.856-15.239-39.839-10.79 19.302-20.472 39.669-35.523 54.775-2.818-45.371 7.777-103.86-15.238-129.43h-15.219c-19.746 91.814-14.306 208.33-30.458 303.66-19.126-3.83-24.262 6.068-40.6 4.978 3.035-48.46-8.247-110.96 10.143-144.37-7.776-25.566-45.519-21.728-71.058-29.873 4.89-23.405-3.259-59.609 15.23-69.686 15.7 1.2-7.944 40.962 15.227 34.852 17.516-24.638 81.828-38.307 55.838-74.674-29.868-4.306-78.863 15.532-116.75 19.924-6.5 131.43 27.787 282.01-25.38 373.34-14.06-16.077-49.379-11.303-71.058-19.915-.579-27.116 43.35-10.57 50.762-29.856-23.074-61.456 4.91-186.62-10.152-268.81-47.58 29.66-8.405 144.42-50.752 179.21-3.358-74.648 5.822-137 10.152-204.1-40.227-9.557-36.378 24.077-55.838 34.86-32.745 14.35-60.866 33.226-96.439 44.81v39.821c-3.632 13.515 23.938-3.566 20.305 9.966 3.339 72.946-8.699 130.83-5.076 204.08-15.7-.17-31.478 25.183-40.61 14.945-5.645-82.418 6.373-182.15-20.305-243.93-8.06 16.996-34.915 15.532-45.676 29.873 10.172 8.28 23.594 13.362 25.371 29.864 4.272 32.29-3.357 72.563-5.075 109.51-1.749 37.813 14.198 86.316-25.381 94.597-8.454-59.745 24.763-160.35-35.533-169.25-3.32 69.626 8.718 124.19 5.075 194.14H151.3c.432 10.834-13.913 32.162-5.095 34.817zm715.71-522.7c-31.675-2.85-49.594 7.779-76.134 9.95-3.495 20.033 4.86 28.416 5.077 44.808 16.593-21.89 60.129-17.362 91.362-24.894-9.28-7.498-11.94-21.473-20.305-29.864zm-274.1 537.62c5.842 24.136-12.264 71.762 10.152 79.652 27.482-14.545 31.371-52.213 71.067-54.775v-34.843c-23.133 7.191-56.339 4.494-81.22 9.966zm5.077 512.72v44.801c23.849 5.148 19.539-17.337 45.676-9.941-9.82 21.89-35.376 28.358-50.752 44.8v119.46c0 37.934 11.989 97.943-15.228 109.52-11.842-94.596-1.69-210.74-5.077-313.64-18.273-1.31-24.468 9.21-40.61 9.976 2.73 106.84 7.413 211.76 10.152 318.59-15.425-3.124-43.722 6.383-50.752-4.988v-209.06c-13.776-3.089-40.286 6.315-45.686-4.987 8.16-31.83 12.175-67.686 45.686-74.665-10.909-19.167-54.59-6.204-81.21-9.957 3.485 107.97-8.572 200.67-5.086 308.63-15.425-3.107-43.722 6.383-50.762-4.971v-283.75H303.56c-3.377 92.938 6.756 199.11-5.076 283.75-6.549 6.869-22.053 4.936-35.534 4.97v-293.69h-55.838c7.335 110.6 10.683 225.14 20.305 333.52 124.39 3.158 271.72-7.047 406.08-9.956 3.604-93.134-8.444-170.93-5.076-263.83 14.316-30.75 40.59-49.805 40.61-94.581-25.381-.017-50.763-.017-76.143-.017zm-50.763-1418.7c-22.17 28.034-68.622 32.273-86.296 64.716 3.701 59.413 11.282 115.06 10.153 179.22 23.79 6.527 55.69 5.114 86.286 4.97-6.637-79.78 13.373-185.69-10.143-248.91zm5.066-4.97c11.772-23.303 1.748-67.984 5.076-99.559-57.409-4.877-82.19 22.264-116.74 39.822 27.69 10.996 27.227 49.609 25.372 89.601 31.006-7.77 58.646-18.834 86.296-29.864zm-76.134 438.06h40.62v-19.924c-16.387 3.863-30.006 10.417-40.62 19.924zm-284.25 612.29c-15.602 1.293-22.828 10.791-35.533 14.945 3.898 59.227 1.807 124.32 15.228 174.22 51.41-29.839 10.8-124.32 20.305-189.17zm-5.075 597.36c-2.426-46.307 11.458-109.44-25.372-129.44-15.67 83.431 6.284 173.02 0 263.83h35.524c-2.062-38.963-7.698-87.38-10.152-134.39z"/><path d="M2359.4 1703.6c56.939-55.967 194.3-50.92 223.33 24.885v263.83c-72.334-2.91-131.97 6.647-197.96 9.958-2.936-58.494-6.717-116.21-10.162-174.22 1.207-15.438 18.027-15.541 30.457-19.915-20.943-12.647-23.074-43.737-20.285-79.653-8.993-13.251-21.483 11.754-30.458 14.945-9.317-4.69 7.826-25.124 5.076-39.83zM2059.9 1240.7c-113.75-125.77 191.31-182.81 187.8-39.822-66.393-85.609-181.16-31.566-187.8 74.665h-50.763v-34.851c16.927.008 33.845.008 50.763.008zM2237.6 2629.6c-69.388-3.31-152.27 6.613-213.19-4.987 2.66-18.953 29.888-13.83 50.762-14.928 3.76-68.4-8.179-121.4-5.086-189.18-7.816-20.945 26.275-.783 25.381-14.928 8.13-27.873-14.178-25.916-25.38-34.844.117-24.784 7.903-42.034 15.237-59.745-29.132 1.31-38.568 21.906-55.838 34.86 8.552-49.167 60.934-98.589 126.9-84.622 62.515 13.217 56.38 85.907 86.296 134.39 3.348 82.954-8.7 150.78-5.077 233.99z"/><path d="M151.35 1758.4h45.686c3.643-69.95-8.394-124.51-5.076-194.14 60.306 8.902 27.08 109.52 35.533 169.25 39.58-8.28 23.634-56.784 25.382-94.597 1.708-36.945 9.337-77.218 5.077-109.51-1.788-16.494-15.2-21.583-25.372-29.864 10.76-14.341 37.625-12.877 45.676-29.873 26.686 61.78 14.668 161.51 20.305 243.93 9.13 10.239 24.91-15.106 40.61-14.945-3.633-73.252 8.405-131.13 5.076-204.08 3.633-13.532-23.938 3.55-20.305-9.966v-39.822c35.573-11.574 63.693-30.46 96.438-44.809 19.46-10.784 15.612-44.418 55.84-34.86-4.33 67.116-13.512 129.47-10.153 204.1 42.348-34.792 3.172-149.54 50.753-179.21 15.062 82.197-12.922 207.36 10.152 268.81-7.413 19.286-51.342 2.749-50.763 29.856 21.68 8.613 57.007 3.838 71.058 19.916 53.168-91.329 18.881-241.9 25.381-373.34 37.89-4.391 86.885-24.23 116.75-19.924 26 36.366-38.312 50.043-55.838 74.673-23.162 6.12.471-33.652-15.229-34.852-18.488 10.086-10.339 46.282-15.229 69.686 25.538 8.145 63.281 4.307 71.057 29.873-18.4 33.405-7.108 95.908-10.142 144.37 16.348 1.09 21.473-8.808 40.6-4.978 16.161-95.338 10.711-211.85 30.457-303.66h15.218c23.005 25.566 12.421 84.06 15.24 129.43 15.051-15.098 24.742-35.472 35.522-54.775 16.613 1.974 12.362 24.4 15.238 39.839 11.527 3.626 39.6-8.97 35.524 9.949-3.466 21.49-46.079 4.588-65.98 9.958-30.557 23.175-32.206 101.12-25.382 144.37 39.128-18.034 24.164-89.15 40.61-129.43h40.61v129.43c32.617 5.439 43.771-10.162 65.991-14.936 6.647-96.351 9.495-196.44 20.294-288.73 55.122-1.124 111.34-26.29 167.52-9.958-3.672 15.218 5.184 18.145 5.076 29.88-32.578-11.344-67.994-2.084-91.372 9.959-11.282 43.584 3.162 75.788 40.61 84.622 2.023-13.558 4.134-37.584 15.23-54.767h30.761c-2.925 75.014 34.571 185.12-65.99 174.23 15.866 65.329-36.527 63.729-65.992 84.622 38.322 36.486 53.68-32.851 106.59-14.936v49.788c-67.522 11.762-133.77 24.792-203.04 34.843-3.24-18.392 6.569-49.592-5.086-59.737-30.87-1.234-13.206 56.818 0 59.737-258.95 46.392-528.02 109.39-730.94 194.13-14.924-37.848 35.965-11.183 25.381-44.801 4.674-15.013-33.51-12.962-30.457-9.94-8.797-2.613 5.548-23.94 5.096-34.818zm807.07-378.31c-1.768 43.065-7.659 82.095-10.152 124.44 11.949.11 14.944-8.579 30.457-4.98 3.319-29.94-6.677-72.927 5.076-94.58 18.184.426 29.328 7.737 45.686 9.95v-29.856c-29.358 3.889-43.388-7.235-71.067-4.98zm10.162-94.589H958.43c-6.087 9.55-13.736 63.048 5.077 64.708h10.152c6.087-9.55 13.736-63.057-5.077-64.708zm-192.9 308.63v34.842c21.63-.366 35.504-8.331 60.915-4.978-3.682-15.217 8.759-14.647 5.077-29.864h-65.991zm-157.34 39.821c-3.682 15.226 8.748 14.647 5.066 29.865 23.29-.4 34.483-12.639 60.915-9.95v-29.872c-28.818-3.362-41.622 8.962-65.98 9.957zm0-179.21c-17.29 7.625-14.109 41.192-15.228 69.686-1.06 26.962-10.241 73.533 15.228 74.674 21.523-31.992-8.964-114.98 30.457-129.43-12.4-2.757-10.83-19.252-30.457-14.928zm-253.8 0c33.973 27.234 13.854 88.827 15.219 139.39 1.522 15.072 21.356-17.541 25.381 0 2.15 33.234-19.392 75.549 15.219 84.63-14.728 33.66-73.443 24.205-81.21 64.716 25.676-4.69 41.543-18.996 76.143-14.945 52.569-67.916 35.288-204.33 40.6-318.58-40.855 4.698-64.724 26.103-91.352 44.792zm-101.51 298.67c16.967 3.294 24.822 15.49 40.6 19.932-2.484-15.711 9.151-17.583 5.076-34.861-18.508 1.762-31.636 8.8-45.677 14.929zm-60.914 24.903c13.157 6.996 23.437 16.843 35.533 24.885 1.513-13.728 13.354-42.92 5.067-49.788 1.06 22.613-27.424 16.264-40.6 24.903z" fill="#fff"/></g></svg>