<svg width="86" height="28" viewBox="0 0 86 28" fill="none" xmlns="http://www.w3.org/2000/svg">
<path d="M32.6513 0.498518L21.3925 27.5773H14.0467L8.50683 5.96413C8.17 4.63476 7.87975 4.14708 6.85492 3.58715C5.18508 2.6732 2.42592 1.81706 0 1.28242L0.164833 0.498518H11.9898C12.7626 0.497737 13.5101 0.775464 14.0976 1.28157C14.685 1.78767 15.0737 2.4888 15.1933 3.25842L18.1209 18.9292L25.3521 0.498518H32.6513ZM61.4362 18.7377C61.4649 11.5887 51.6322 11.1949 51.7003 8.00155C51.7218 7.0298 52.6392 5.99665 54.6458 5.73294C56.9975 5.50778 59.3659 5.92714 61.5007 6.94672L62.7191 1.20294C60.6406 0.415233 58.4394 0.00786289 56.2189 0C49.3497 0 44.5158 3.68469 44.4728 8.95523C44.4298 12.8531 47.9235 15.0241 50.5573 16.3246C53.2663 17.6504 54.1764 18.5029 54.1621 19.6878C54.1442 21.5085 52.0049 22.3068 50.0054 22.3393C46.5117 22.3935 44.4871 21.3892 42.8674 20.6306L41.6097 26.5623C43.2329 27.3136 46.2286 27.9711 49.3353 28C56.6346 28 61.4112 24.3659 61.4362 18.7377ZM79.5715 27.5773H86L80.3921 0.498518H74.4581C73.824 0.492595 73.2029 0.678845 72.6751 1.03312C72.1473 1.38739 71.7373 1.89334 71.4982 2.48536L61.0743 27.5773H68.37L69.8213 23.5314H78.7366L79.5715 27.5773ZM71.8207 17.9827L75.4757 7.8137L77.5827 17.9827H71.8207ZM42.5807 0.498518L36.8367 27.5773H29.885L35.6362 0.498518H42.5807Z" fill="#141414"/>
</svg>
